<?xml version="1.0" encoding="UTF-8"?>
<svg version="1.1" xmlns="http://www.w3.org/2000/svg" width="640" height="640">
<path d="M0 0 C1.53333984 0.00676758 1.53333984 0.00676758 3.09765625 0.01367188 C5.60683194 0.025397 8.1158849 0.04180824 10.625 0.0625 C10.625 0.7225 10.625 1.3825 10.625 2.0625 C11.6459375 1.99933594 12.666875 1.93617188 13.71875 1.87109375 C21.6293066 2.25871102 29.15206143 7.22651702 34.6875 12.75 C35.67460572 13.84707506 36.65373676 14.95137485 37.625 16.0625 C38.26824219 16.66707031 38.91148437 17.27164063 39.57421875 17.89453125 C41.97048993 20.42773221 43.6152229 23.05433402 45.375 26.0625 C45.98859375 27.09375 46.6021875 28.125 47.234375 29.1875 C48.625 32.0625 48.625 32.0625 48.625 36.0625 C49.285 36.0625 49.945 36.0625 50.625 36.0625 C51.181875 37.238125 51.73875 38.41375 52.3125 39.625 C53.78762501 42.60168595 55.40111642 45.26629002 57.375 47.9375 C59.625 51.0625 59.625 51.0625 59.625 53.0625 C60.285 53.0625 60.945 53.0625 61.625 53.0625 C62.615 56.3625 63.605 59.6625 64.625 63.0625 C65.285 63.0625 65.945 63.0625 66.625 63.0625 C66.955 65.0425 67.285 67.0225 67.625 69.0625 C68.285 69.0625 68.945 69.0625 69.625 69.0625 C69.625 69.7225 69.625 70.3825 69.625 71.0625 C70.285 71.0625 70.945 71.0625 71.625 71.0625 C72.058125 72.114375 72.49125 73.16625 72.9375 74.25 C73.93194362 76.59878113 74.94562525 78.57312541 76.3125 80.75 C77.625 83.0625 77.625 83.0625 77.625 87.0625 C78.285 87.0625 78.945 87.0625 79.625 87.0625 C79.625 88.0525 79.625 89.0425 79.625 90.0625 C80.285 90.0625 80.945 90.0625 81.625 90.0625 C81.625 91.3825 81.625 92.7025 81.625 94.0625 C82.285 94.0625 82.945 94.0625 83.625 94.0625 C85.80597876 97.24309403 87.20021188 100.50052969 88.625 104.0625 C89.429375 105.3928125 89.429375 105.3928125 90.25 106.75 C91.625 109.0625 91.625 109.0625 91.625 111.0625 C92.285 111.0625 92.945 111.0625 93.625 111.0625 C96.625 117.6875 96.625 117.6875 96.625 121.0625 C97.285 121.0625 97.945 121.0625 98.625 121.0625 C98.625 121.7225 98.625 122.3825 98.625 123.0625 C99.285 123.0625 99.945 123.0625 100.625 123.0625 C100.86734375 123.70316406 101.1096875 124.34382813 101.359375 125.00390625 C104.1323459 132.16030423 107.40400252 138.2790778 111.6875 144.625 C117.625 153.4335443 117.625 153.4335443 117.625 157.0625 C118.285 157.0625 118.945 157.0625 119.625 157.0625 C120.46319158 158.68499941 121.2954116 160.31058497 122.125 161.9375 C122.82109375 163.29488281 122.82109375 163.29488281 123.53125 164.6796875 C124.625 167.0625 124.625 167.0625 124.625 169.0625 C125.285 169.0625 125.945 169.0625 126.625 169.0625 C127.29805018 170.66399886 127.96322227 172.26881029 128.625 173.875 C128.99625 174.76832031 129.3675 175.66164063 129.75 176.58203125 C130.625 179.0625 130.625 179.0625 130.625 182.0625 C131.285 182.0625 131.945 182.0625 132.625 182.0625 C136.06687279 188.09339214 139.23924876 194.22458058 142.29296875 200.4609375 C143.6286619 203.19207751 143.6286619 203.19207751 145.625 206.0625 C145.88378906 208.15966797 145.88378906 208.15966797 145.890625 210.5546875 C145.89320313 211.42480469 145.89578125 212.29492188 145.8984375 213.19140625 C145.89070313 214.09761719 145.88296875 215.00382813 145.875 215.9375 C145.88273437 216.83597656 145.89046875 217.73445312 145.8984375 218.66015625 C145.88496946 223.21908758 145.80243057 226.9322944 143.625 231.0625 C142.635 231.0625 141.645 231.0625 140.625 231.0625 C140.625 232.3825 140.625 233.7025 140.625 235.0625 C139.965 235.0625 139.305 235.0625 138.625 235.0625 C138.49544922 236.38507813 138.49544922 236.38507813 138.36328125 237.734375 C137.5247019 241.51463745 136.26352968 243.34761809 133.8125 246.3125 C133.12542969 247.16328125 132.43835938 248.0140625 131.73046875 248.890625 C129.70790692 250.9769782 128.20234906 251.84527149 125.625 253.0625 C124.18710016 254.54014317 124.18710016 254.54014317 123 256.1875 C122.21625 257.13625 121.4325 258.085 120.625 259.0625 C119.965 259.0625 119.305 259.0625 118.625 259.0625 C118.625 260.0525 118.625 261.0425 118.625 262.0625 C116.975 262.0625 115.325 262.0625 113.625 262.0625 C113.58375 262.825625 113.5425 263.58875 113.5 264.375 C112.625 267.0625 112.625 267.0625 109.625 268.75 C108.635 269.183125 107.645 269.61625 106.625 270.0625 C106.295 270.7225 105.965 271.3825 105.625 272.0625 C104.08984742 272.88645195 102.52102231 273.64833132 100.9375 274.375 C96.52731632 276.5014509 93.28037163 278.84229166 89.625 282.0625 C86.89885357 283.82130415 85.38009447 284.08827953 82.0625 284.4375 C78.56443983 284.6711881 78.56443983 284.6711881 77.125 287.0625 C75.625 289.0625 75.625 289.0625 72 289.6875 C70.88625 289.81125 69.7725 289.935 68.625 290.0625 C68.295 290.7225 67.965 291.3825 67.625 292.0625 C65.23918291 293.11861385 62.87594192 294.08240622 60.4375 295 C56.68271251 296.43231406 53.03133065 297.85458665 49.44921875 299.6875 C46.75352999 300.99992385 44.5646699 301.63976603 41.625 302.125 C35.12765087 302.99622182 35.12765087 302.99622182 29.625 306.0625 C27.80058082 306.44160009 25.9645209 306.76520369 24.125 307.0625 C23.04089844 307.23910156 21.95679688 307.41570312 20.83984375 307.59765625 C18.11826268 307.99117769 15.42636953 308.27368532 12.6875 308.5 C9.02488058 308.86493491 6.64305555 309.86755051 3.625 312.0625 C0.98352997 313.38323501 -1.00539197 313.19439086 -3.96362305 313.2043457 C-5.13632248 313.21138016 -6.30902191 313.21841461 -7.51725769 313.22566223 C-8.79417984 313.22982651 -10.07110199 313.23399078 -11.38671875 313.23828125 C-13.3979447 313.2555482 -15.40917075 313.27283975 -17.42038441 313.29148388 C-22.3773111 313.33687939 -27.33413734 313.37464199 -32.29125977 313.38842773 C-35.74332425 313.39865541 -39.19479062 313.42835973 -42.64661598 313.46974754 C-44.57314426 313.48768918 -46.4998278 313.48543816 -48.42643738 313.48249817 C-60.21675667 313.64270004 -71.62996108 315.71706586 -81.73828125 322.109375 C-83.375 323.0625 -83.375 323.0625 -85.375 323.0625 C-85.375 323.7225 -85.375 324.3825 -85.375 325.0625 C-86.365 325.0625 -87.355 325.0625 -88.375 325.0625 C-88.705 326.0525 -89.035 327.0425 -89.375 328.0625 C-90.035 328.0625 -90.695 328.0625 -91.375 328.0625 C-91.375 328.7225 -91.375 329.3825 -91.375 330.0625 C-92.035 330.0625 -92.695 330.0625 -93.375 330.0625 C-93.375 330.7225 -93.375 331.3825 -93.375 332.0625 C-94.035 332.3925 -94.695 332.7225 -95.375 333.0625 C-95.705 334.0525 -96.035 335.0425 -96.375 336.0625 C-97.096875 336.43375 -97.81875 336.805 -98.5625 337.1875 C-103.37616486 340.39660991 -106.55617917 345.60603752 -108.375 351.0625 C-110.046875 352.7109375 -110.046875 352.7109375 -112.125 354.4375 C-114.49327664 356.44401502 -116.73975995 358.42725995 -118.9375 360.625 C-124.53557414 366.22307414 -129.74091445 370.51780482 -137.375 373.0625 C-137.375 373.7225 -137.375 374.3825 -137.375 375.0625 C-141.17367901 375.94715998 -144.69708167 376.1912169 -148.59375 376.1953125 C-149.77324219 376.19660156 -150.95273438 376.19789063 -152.16796875 376.19921875 C-153.39128906 376.19535156 -154.61460937 376.19148438 -155.875 376.1875 C-157.09832031 376.19136719 -158.32164062 376.19523437 -159.58203125 376.19921875 C-160.76152344 376.19792969 -161.94101563 376.19664062 -163.15625 376.1953125 C-164.22939453 376.19418457 -165.30253906 376.19305664 -166.40820312 376.19189453 C-169.22400137 376.06908569 -171.67715217 375.88186819 -174.375 375.0625 C-175.365 373.5775 -175.365 373.5775 -176.375 372.0625 C-178.43425139 371.33867533 -178.43425139 371.33867533 -180.375 371.0625 C-180.375 370.4025 -180.375 369.7425 -180.375 369.0625 C-180.931875 369.000625 -181.48875 368.93875 -182.0625 368.875 C-185.32711206 367.72797414 -187.10305553 365.55566012 -189.375 363.0625 C-190.00921875 362.43214844 -190.6434375 361.80179687 -191.296875 361.15234375 C-198.52767385 353.66330208 -203.10316066 344.58656596 -203.375 334.0625 C-203.41367188 333.13695312 -203.45234375 332.21140625 -203.4921875 331.2578125 C-203.75250324 319.89069186 -201.48609493 309.28468985 -196.375 299.0625 C-195.715 299.0625 -195.055 299.0625 -194.375 299.0625 C-194.045 298.0725 -193.715 297.0825 -193.375 296.0625 C-191.9375 294.375 -191.9375 294.375 -190.375 293.0625 C-189.715 293.0625 -189.055 293.0625 -188.375 293.0625 C-188.375 292.0725 -188.375 291.0825 -188.375 290.0625 C-185.14708445 287.9105563 -184.09099191 287.86163557 -180.375 288.0625 C-180.2925 287.44375 -180.21 286.825 -180.125 286.1875 C-179.375 284.0625 -179.375 284.0625 -177.6171875 282.98828125 C-174.60391506 281.74412521 -171.59950017 281.27034637 -168.3984375 280.72265625 C-166.00048181 280.17127072 -166.00048181 280.17127072 -164.375 277.0625 C-162.7353125 276.629375 -162.7353125 276.629375 -161.0625 276.1875 C-157.25165068 275.34060316 -157.25165068 275.34060316 -154.8125 272.5 C-151.96818284 269.65568284 -150.31371594 269.33729414 -146.375 269.0625 C-146.3234375 268.46050781 -146.271875 267.85851562 -146.21875 267.23828125 C-145.375 265.0625 -145.375 265.0625 -142.96875 263.60546875 C-141.9478125 263.15816406 -140.926875 262.71085937 -139.875 262.25 C-135.72706639 260.31102512 -132.21707048 258.35486179 -128.6875 255.4375 C-123.2644673 251.020904 -117.93234511 248.10284108 -110.875 247.625 C-106.39128534 247.30695104 -103.57282892 245.65176084 -99.7890625 243.33203125 C-96.21239775 241.45109914 -92.48582554 240.62647856 -88.5625 239.73828125 C-87.840625 239.51527344 -87.11875 239.29226563 -86.375 239.0625 C-86.045 238.4025 -85.715 237.7425 -85.375 237.0625 C-78.80898596 234.01971301 -71.73678126 232.29226715 -64.7109375 230.67578125 C-62.43164632 230.28726923 -62.43164632 230.28726923 -61.375 229.0625 C-59.73172256 228.76462324 -58.07799668 228.52388957 -56.421875 228.30859375 C-55.40996094 228.17646484 -54.39804687 228.04433594 -53.35546875 227.90820312 C-51.75638672 227.70614258 -51.75638672 227.70614258 -50.125 227.5 C-48.54912109 227.29213867 -48.54912109 227.29213867 -46.94140625 227.08007812 C-37.22220555 225.8297627 -37.22220555 225.8297627 -33.375 226.0625 C-31.6015625 227.63671875 -31.6015625 227.63671875 -30 229.75 C-25.96920694 234.7028699 -21.82770156 238.72697353 -15.375 240.0625 C-15.375 240.7225 -15.375 241.3825 -15.375 242.0625 C-4.815 242.0625 5.745 242.0625 16.625 242.0625 C16.955 241.0725 17.285 240.0825 17.625 239.0625 C19.2265625 238.10546875 19.2265625 238.10546875 21.25 237.25 C29.12313319 233.49620257 33.24450217 228.68983569 37.36328125 221.0390625 C37.77964844 220.38679687 38.19601562 219.73453125 38.625 219.0625 C39.285 219.0625 39.945 219.0625 40.625 219.0625 C40.625 218.0725 40.625 217.0825 40.625 216.0625 C41.285 216.0625 41.945 216.0625 42.625 216.0625 C43.01656043 211.39873555 43.33796023 206.73384075 43.625 202.0625 C43.70492187 200.91652344 43.78484375 199.77054688 43.8671875 198.58984375 C44.28221472 188.34843684 41.16805818 181.81723562 34.625 174.0625 C34.625 173.4025 34.625 172.7425 34.625 172.0625 C33.75875 171.629375 33.75875 171.629375 32.875 171.1875 C32.1325 170.81625 31.39 170.445 30.625 170.0625 C29.903125 169.7325 29.18125 169.4025 28.4375 169.0625 C26.625 168.0625 26.625 168.0625 25.625 166.0625 C23.29955321 164.7322811 23.29955321 164.7322811 20.5 163.5 C19.56929687 163.06558594 18.63859375 162.63117188 17.6796875 162.18359375 C10.84085157 159.67368849 3.86915177 159.93618491 -3.3125 160 C-4.7675293 160.00676758 -4.7675293 160.00676758 -6.25195312 160.01367188 C-8.6263676 160.0253685 -11.00065021 160.04175914 -13.375 160.0625 C-13.375 160.7225 -13.375 161.3825 -13.375 162.0625 C-14.09945312 162.35382813 -14.82390625 162.64515625 -15.5703125 162.9453125 C-21.71848552 165.55213786 -26.1024646 167.89048347 -30.375 173.0625 C-30.705 174.0525 -31.035 175.0425 -31.375 176.0625 C-32.138125 176.76375 -32.90125 177.465 -33.6875 178.1875 C-36.5877127 181.29005312 -37.8996618 183.99752068 -39.48046875 187.87890625 C-40.34921434 189.99955596 -41.32657855 192.02569886 -42.375 194.0625 C-43.035 194.0625 -43.695 194.0625 -44.375 194.0625 C-44.37923194 193.27766613 -44.38346388 192.49283226 -44.38782406 191.68421555 C-44.49107858 172.59730296 -44.59970856 153.51042792 -44.71433926 134.42358017 C-44.76964357 125.19336971 -44.823121 115.96315538 -44.87231445 106.73291016 C-44.91519047 98.6888816 -44.96147712 90.64488118 -45.01187855 82.60089612 C-45.03845192 78.34073859 -45.06330433 74.08058653 -45.08407402 69.82039642 C-45.10367154 65.81168106 -45.12782466 61.80301912 -45.15549088 57.79435158 C-45.1648448 56.32216424 -45.17252603 54.84996519 -45.17841911 53.37775993 C-45.18670838 51.36914627 -45.20157386 49.36056294 -45.21678162 47.35198975 C-45.22323417 46.22740231 -45.22968672 45.10281487 -45.2363348 43.94414902 C-45.35578975 41.46171474 -45.75172947 39.445299 -46.375 37.0625 C-45.88671875 34.66015625 -45.88671875 34.66015625 -45.0625 32.125 C-44.78148437 31.25230469 -44.50046875 30.37960938 -44.2109375 29.48046875 C-43.34359743 26.97166733 -42.43067884 24.49868195 -41.375 22.0625 C-40.715 22.0625 -40.055 22.0625 -39.375 22.0625 C-39.00375 21.20398438 -39.00375 21.20398438 -38.625 20.328125 C-37.18183801 17.71239389 -35.49283778 15.91476544 -33.375 13.8125 C-32.67375 13.10609375 -31.9725 12.3996875 -31.25 11.671875 C-29.375 10.0625 -29.375 10.0625 -27.375 10.0625 C-27.375 9.4025 -27.375 8.7425 -27.375 8.0625 C-26.73691406 7.72476563 -26.09882813 7.38703125 -25.44140625 7.0390625 C-24.61511719 6.59304687 -23.78882813 6.14703125 -22.9375 5.6875 C-22.11378906 5.24664062 -21.29007813 4.80578125 -20.44140625 4.3515625 C-18.24033422 3.22831441 -18.24033422 3.22831441 -17.375 1.0625 C-11.72362219 -0.43013965 -5.79988168 -0.04864417 0 0 Z " fill="#523769" transform="translate(315.375,131.9375)"/>
<path d="M0 0 C2.03384734 4.06769468 2.12395394 7.77619074 2.12025452 12.28948975 C2.12231651 14.22878609 2.12231651 14.22878609 2.12442017 16.20726013 C2.12088123 17.63784813 2.11724642 19.0684359 2.11352539 20.49902344 C2.11324329 22.00698342 2.11340171 23.51494354 2.1139679 25.02290344 C2.11425496 29.11552328 2.1083728 33.20811385 2.10139394 37.30072689 C2.0951454 41.57818898 2.09455541 45.85565173 2.09336853 50.13311768 C2.09025965 58.23262266 2.08205221 66.33211416 2.07201904 74.43161321 C2.06084417 83.65281041 2.05534398 92.87400826 2.05032361 102.09521055 C2.03986925 121.06348135 2.02227836 140.03173959 2 159 C2.66 159 3.32 159 4 159 C4.14695312 158.3709375 4.29390625 157.741875 4.4453125 157.09375 C6.09239954 150.80831439 8.33642632 145.65058322 13 141 C13.66 141 14.32 141 15 141 C15.10054687 140.41347656 15.20109375 139.82695312 15.3046875 139.22265625 C16.72663687 134.67721137 20.88034532 131.2371862 24.9140625 128.8828125 C27.73086509 127.62424113 29.90092292 127 33 127 C33 126.34 33 125.68 33 125 C37.10671798 123.85173816 41.07628643 123.85303174 45.3125 123.875 C46.04662109 123.87113281 46.78074219 123.86726563 47.53710938 123.86328125 C54.79477094 123.87616086 60.82093952 124.56141595 67.375 127.9375 C68.41398438 128.46214844 69.45296875 128.98679687 70.5234375 129.52734375 C73 131 73 131 74 133 C75.010625 133.45375 76.02125 133.9075 77.0625 134.375 C83.82640006 138.05042503 88.73384219 146.80692199 91 154 C91.84915409 163.07845618 90.50114915 172.06012069 89 181 C88.34 181 87.68 181 87 181 C87 181.99 87 182.98 87 184 C86.34 184 85.68 184 85 184 C84.773125 184.680625 84.54625 185.36125 84.3125 186.0625 C80.73486607 194.06958546 74.55142598 200.80654864 66.28125 204.07421875 C63.8381773 204.77313548 63.8381773 204.77313548 63 207 C59.52622038 207.96225105 56.21114435 208.12837212 52.62109375 208.1328125 C51.61755859 208.13410156 50.61402344 208.13539063 49.58007812 208.13671875 C48.54302734 208.13285156 47.50597656 208.12898437 46.4375 208.125 C45.39658203 208.12886719 44.35566406 208.13273438 43.28320312 208.13671875 C41.77983398 208.13478516 41.77983398 208.13478516 40.24609375 208.1328125 C39.33529053 208.13168457 38.4244873 208.13055664 37.48608398 208.12939453 C35.18008442 208.00937295 33.2086656 207.64947474 31 207 C31 206.34 31 205.68 31 205 C29.90365234 204.85304688 29.90365234 204.85304688 28.78515625 204.703125 C25.63887643 203.90883276 23.9595444 202.76763552 21.4375 200.75 C20.69371094 200.16734375 19.94992187 199.5846875 19.18359375 198.984375 C17 197 17 197 15.0859375 194.26171875 C13.20052188 191.72961775 13.20052188 191.72961775 10.29296875 191.66015625 C9.26816406 191.79292969 8.24335938 191.92570313 7.1875 192.0625 C6.04152344 192.20042969 4.89554688 192.33835937 3.71484375 192.48046875 C1.87599609 192.73763672 1.87599609 192.73763672 0 193 C-1.27746094 193.14050781 -2.55492187 193.28101563 -3.87109375 193.42578125 C-10.96769237 194.24764312 -17.32843446 195.50584198 -24 198 C-25.7456419 198.55555119 -27.49584327 199.09694988 -29.25 199.625 C-30.03890625 199.86476563 -30.8278125 200.10453125 -31.640625 200.3515625 C-34.07817538 201.02148529 -36.51625502 201.53319687 -39 202 C-39.33 202.99 -39.66 203.98 -40 205 C-42.94921875 206.02734375 -42.94921875 206.02734375 -46.6875 206.9375 C-51.96913661 208.22584008 -55.51857723 209.96863313 -60 213 C-62.1328125 213.3984375 -62.1328125 213.3984375 -64.125 213.375 C-71.48248919 213.89786725 -78.74452213 217.79458072 -84.25 222.625 C-88.12798349 225.97416756 -92.48895662 227.93348157 -97.1796875 229.92578125 C-99.34250445 230.93366513 -99.34250445 230.93366513 -100 234 C-103.28305377 235.58072959 -106.54536928 236.84845643 -110 238 C-110.33 238.99 -110.66 239.98 -111 241 C-112.11375 241.0825 -113.2275 241.165 -114.375 241.25 C-115.57125 241.4975 -116.7675 241.745 -118 242 C-118.31453125 242.65226563 -118.6290625 243.30453125 -118.953125 243.9765625 C-120 246 -120 246 -122.0234375 246.7578125 C-122.79945313 246.87898437 -123.57546875 247.00015625 -124.375 247.125 C-127.59359175 247.65246152 -130.22470488 248.22723439 -133 250 C-133.33 250.99 -133.66 251.98 -134 253 C-135.84765625 253.73046875 -135.84765625 253.73046875 -138.0625 254.1875 C-138.79597656 254.34605469 -139.52945313 254.50460937 -140.28515625 254.66796875 C-140.85105469 254.77753906 -141.41695313 254.88710938 -142 255 C-142 255.99 -142 256.98 -142 258 C-142.66 258 -143.32 258 -144 258 C-144.33 258.99 -144.66 259.98 -145 261 C-145.33 260.34 -145.66 259.68 -146 259 C-145.61328125 258.46632813 -145.2265625 257.93265625 -144.828125 257.3828125 C-141.50708069 252.63141742 -139.0337897 248.06694198 -137.01171875 242.640625 C-135.23234904 237.99640136 -133.09208138 233.50997872 -131 229 C-130.34 229 -129.68 229 -129 229 C-129 228.01 -129 227.02 -129 226 C-128.34 226 -127.68 226 -127 226 C-126.773125 225.360625 -126.54625 224.72125 -126.3125 224.0625 C-125.19218745 221.44843738 -123.96285881 219.09249972 -122.5625 216.625 C-120.4237586 212.84011362 -118.68829994 209.00971235 -117 205 C-115.7176932 202.39954553 -114.40817187 199.81473541 -113.0859375 197.234375 C-111.90054998 194.918774 -111.90054998 194.918774 -111 192 C-110.34 192 -109.68 192 -109 192 C-109 191.01 -109 190.02 -109 189 C-108.278125 188.360625 -107.55625 187.72125 -106.8125 187.0625 C-103.1273184 183.69050664 -101.88055349 179.14112034 -100.2109375 174.546875 C-99.81132812 173.70640625 -99.41171875 172.8659375 -99 172 C-98.01 171.67 -97.02 171.34 -96 171 C-95.26639432 168.99264169 -95.26639432 168.99264169 -94.9375 166.625 C-94.36829089 163.29648197 -93.94048384 161.91072575 -92 159 C-91.34 159 -90.68 159 -90 159 C-89.67 157.783125 -89.34 156.56625 -89 155.3125 C-87.16042047 149.69600598 -84.05445633 145.0160144 -80.83984375 140.11328125 C-79.06506443 137.11009841 -77.96649574 134.34016922 -77 131 C-76.34 131 -75.68 131 -75 131 C-75 130.01 -75 129.02 -75 128 C-73.8553125 126.9171875 -73.8553125 126.9171875 -72.6875 125.8125 C-69.84419528 122.83694855 -69.06656252 120.89684486 -67.8125 117.11328125 C-66.65427515 114.10078295 -64.94501362 111.55708933 -63.1875 108.86328125 C-61.57985501 106.34075933 -60.31516227 103.68512296 -59 101 C-55.65339628 94.76882368 -52.06622705 88.68099942 -48.453125 82.6015625 C-46.90004208 80.01102727 -46.90004208 80.01102727 -46 77 C-45.01 76.34 -44.02 75.68 -43 75 C-41.64930424 72.26863033 -41.64930424 72.26863033 -40.5 69.125 C-39.02258321 65.27045749 -37.55254853 62.2356249 -35 59 C-34.29485154 56.85266073 -34.29485154 56.85266073 -34 55 C-33.34 55 -32.68 55 -32 55 C-31.87625 54.278125 -31.7525 53.55625 -31.625 52.8125 C-31.0095069 50.04278106 -30.11555626 47.6029646 -29 45 C-28.34 45 -27.68 45 -27 45 C-26.73703125 44.28972656 -26.4740625 43.57945312 -26.203125 42.84765625 C-24.93999477 39.85797463 -23.42763464 37.21466545 -21.75 34.4375 C-18.66344323 29.25259798 -15.98164102 23.97456971 -13.45703125 18.49609375 C-11.90738359 15.84133543 -10.45865211 14.76824273 -8 13 C-6.91167683 11.21586579 -6.91167683 11.21586579 -6.25 9.3125 C-5.8375 8.219375 -5.425 7.12625 -5 6 C-4.34 6 -3.68 6 -3 6 C-2.814375 5.071875 -2.814375 5.071875 -2.625 4.125 C-2 2 -2 2 0 0 Z " fill="#9E86F4" transform="translate(269,167)"/>
<path d="M0 0 C1.53333984 0.00676758 1.53333984 0.00676758 3.09765625 0.01367188 C5.60683194 0.025397 8.1158849 0.04180824 10.625 0.0625 C10.625 0.7225 10.625 1.3825 10.625 2.0625 C12.15640625 1.96775391 12.15640625 1.96775391 13.71875 1.87109375 C21.6293066 2.25871102 29.15206143 7.22651702 34.6875 12.75 C35.67460572 13.84707506 36.65373676 14.95137485 37.625 16.0625 C38.26824219 16.66707031 38.91148437 17.27164063 39.57421875 17.89453125 C41.97048993 20.42773221 43.6152229 23.05433402 45.375 26.0625 C45.98859375 27.09375 46.6021875 28.125 47.234375 29.1875 C48.625 32.0625 48.625 32.0625 48.625 36.0625 C49.285 36.3925 49.945 36.7225 50.625 37.0625 C50.71865714 56.65627559 50.78908362 76.25000543 50.83224869 95.84395885 C50.85282835 104.94284255 50.88086049 114.04158674 50.92675781 123.14038086 C50.96676693 131.07570171 50.99246618 139.01092146 51.00135398 146.94634038 C51.00654503 151.14376399 51.01864866 155.34089851 51.04792023 159.53822899 C51.07531251 163.49861928 51.08339761 167.4586047 51.07743073 171.41908073 C51.07852043 172.8633317 51.08633155 174.3075979 51.1018219 175.7517662 C51.19906045 185.29510372 49.77294621 193.08108715 46.625 202.0625 C46.14480953 204.32075425 45.70535932 206.59001469 45.375 208.875 C45.22546875 209.87144531 45.0759375 210.86789062 44.921875 211.89453125 C44.82390625 212.60996094 44.7259375 213.32539063 44.625 214.0625 C43.965 214.0625 43.305 214.0625 42.625 214.0625 C42.6971875 213.34707031 42.769375 212.63164062 42.84375 211.89453125 C43.14882639 208.61919726 43.39766765 205.34415248 43.625 202.0625 C43.70492187 200.96035156 43.78484375 199.85820312 43.8671875 198.72265625 C44.28390166 188.41510883 41.21142522 181.86863359 34.625 174.0625 C34.625 173.4025 34.625 172.7425 34.625 172.0625 C34.0475 171.77375 33.47 171.485 32.875 171.1875 C32.1325 170.81625 31.39 170.445 30.625 170.0625 C29.903125 169.7325 29.18125 169.4025 28.4375 169.0625 C26.625 168.0625 26.625 168.0625 25.625 166.0625 C23.29955321 164.7322811 23.29955321 164.7322811 20.5 163.5 C19.10394531 162.84837891 19.10394531 162.84837891 17.6796875 162.18359375 C10.84085157 159.67368849 3.86915177 159.93618491 -3.3125 160 C-4.7675293 160.00676758 -4.7675293 160.00676758 -6.25195312 160.01367188 C-8.6263676 160.0253685 -11.00065021 160.04175914 -13.375 160.0625 C-13.375 160.7225 -13.375 161.3825 -13.375 162.0625 C-14.09945312 162.35382813 -14.82390625 162.64515625 -15.5703125 162.9453125 C-21.71848552 165.55213786 -26.1024646 167.89048347 -30.375 173.0625 C-30.705 174.0525 -31.035 175.0425 -31.375 176.0625 C-32.138125 176.76375 -32.90125 177.465 -33.6875 178.1875 C-36.5877127 181.29005312 -37.8996618 183.99752068 -39.48046875 187.87890625 C-40.34921434 189.99955596 -41.32657855 192.02569886 -42.375 194.0625 C-43.035 194.0625 -43.695 194.0625 -44.375 194.0625 C-44.37923194 193.27766613 -44.38346388 192.49283226 -44.38782406 191.68421555 C-44.49107858 172.59730296 -44.59970856 153.51042792 -44.71433926 134.42358017 C-44.76964357 125.19336971 -44.823121 115.96315538 -44.87231445 106.73291016 C-44.91519047 98.6888816 -44.96147712 90.64488118 -45.01187855 82.60089612 C-45.03845192 78.34073859 -45.06330433 74.08058653 -45.08407402 69.82039642 C-45.10367154 65.81168106 -45.12782466 61.80301912 -45.15549088 57.79435158 C-45.1648448 56.32216424 -45.17252603 54.84996519 -45.17841911 53.37775993 C-45.18670838 51.36914627 -45.20157386 49.36056294 -45.21678162 47.35198975 C-45.22323417 46.22740231 -45.22968672 45.10281487 -45.2363348 43.94414902 C-45.35578975 41.46171474 -45.75172947 39.445299 -46.375 37.0625 C-45.88671875 34.66015625 -45.88671875 34.66015625 -45.0625 32.125 C-44.78148437 31.25230469 -44.50046875 30.37960938 -44.2109375 29.48046875 C-43.34359743 26.97166733 -42.43067884 24.49868195 -41.375 22.0625 C-40.715 22.0625 -40.055 22.0625 -39.375 22.0625 C-39.1275 21.49015625 -38.88 20.9178125 -38.625 20.328125 C-37.18183801 17.71239389 -35.49283778 15.91476544 -33.375 13.8125 C-32.67375 13.10609375 -31.9725 12.3996875 -31.25 11.671875 C-29.375 10.0625 -29.375 10.0625 -27.375 10.0625 C-27.375 9.4025 -27.375 8.7425 -27.375 8.0625 C-26.73691406 7.72476563 -26.09882813 7.38703125 -25.44140625 7.0390625 C-24.61511719 6.59304687 -23.78882813 6.14703125 -22.9375 5.6875 C-21.70193359 5.02621094 -21.70193359 5.02621094 -20.44140625 4.3515625 C-18.24033422 3.22831441 -18.24033422 3.22831441 -17.375 1.0625 C-11.72362219 -0.43013965 -5.79988168 -0.04864417 0 0 Z " fill="#5F3A74" transform="translate(315.375,131.9375)"/>
<path d="M0 0 C3.49877581 2.33251721 3.49265019 3.23162547 5 7 C6.26973842 8.86442604 7.60364113 10.65965939 8.9765625 12.44921875 C10 14 10 14 10 16 C10.66 16 11.32 16 12 16 C12.99 19.3 13.98 22.6 15 26 C15.66 26 16.32 26 17 26 C17.33 27.98 17.66 29.96 18 32 C18.66 32 19.32 32 20 32 C20 32.66 20 33.32 20 34 C20.66 34 21.32 34 22 34 C22.433125 35.051875 22.86625 36.10375 23.3125 37.1875 C24.30694362 39.53628113 25.32062525 41.51062541 26.6875 43.6875 C28 46 28 46 28 50 C28.66 50 29.32 50 30 50 C30 50.99 30 51.98 30 53 C30.66 53 31.32 53 32 53 C32 54.32 32 55.64 32 57 C32.66 57 33.32 57 34 57 C36.18097876 60.18059403 37.57521188 63.43802969 39 67 C39.53625 67.886875 40.0725 68.77375 40.625 69.6875 C42 72 42 72 42 74 C42.66 74 43.32 74 44 74 C47 80.625 47 80.625 47 84 C47.66 84 48.32 84 49 84 C49 84.66 49 85.32 49 86 C49.66 86 50.32 86 51 86 C51.24234375 86.64066406 51.4846875 87.28132813 51.734375 87.94140625 C54.5073459 95.09780423 57.77900252 101.2165778 62.0625 107.5625 C68 116.3710443 68 116.3710443 68 120 C68.66 120 69.32 120 70 120 C70.83819158 121.62249941 71.6704116 123.24808497 72.5 124.875 C73.19609375 126.23238281 73.19609375 126.23238281 73.90625 127.6171875 C75 130 75 130 75 132 C75.66 132 76.32 132 77 132 C77.67305018 133.60149886 78.33822227 135.20631029 79 136.8125 C79.37125 137.70582031 79.7425 138.59914063 80.125 139.51953125 C81 142 81 142 81 145 C81.66 145 82.32 145 83 145 C88.77757742 155.27632348 92.97606522 164.11696744 94 176 C90.13269823 178.57820118 86.49347938 179.85620525 82 181 C81.195625 181.20625 80.39125 181.4125 79.5625 181.625 C79.046875 181.74875 78.53125 181.8725 78 182 C78 182.66 78 183.32 78 184 C76.948125 183.443125 76.948125 183.443125 75.875 182.875 C72.19013704 181.75351997 70.54778465 182.66958076 67 184 C63.34113615 184.34846322 61.15987497 183.8725185 58 182 C57.67 182.33 57.34 182.66 57 183 C54.16141362 183.02122874 51.33730851 182.99183144 48.5 182.9375 C41.66082394 182.87264355 35.08664942 183.20860643 28.29907227 184.14379883 C20.37567409 185.1814843 12.4091794 185.63152795 4.4375 186.125 C3.36792053 186.19143707 3.36792053 186.19143707 2.2767334 186.25921631 C-1.81515709 186.51220256 -5.90740279 186.7587342 -10 187 C-10 185.68 -10 184.36 -10 183 C-9.34 183 -8.68 183 -8 183 C-7.67 181.02 -7.34 179.04 -7 177 C-6.34 177 -5.68 177 -5 177 C-5.061875 175.9275 -5.12375 174.855 -5.1875 173.75 C-5.19895021 167.32643099 -3.62395101 160.56447358 -0.96180916 154.72123432 C0.16520004 151.53260166 0.24609167 149.0085056 0.24050903 145.6282196 C0.24325836 144.34239487 0.24600769 143.05657013 0.24884033 141.73178101 C0.24176293 140.31426908 0.23449333 138.8967581 0.22705078 137.47924805 C0.22648641 135.98099271 0.22680374 134.48273682 0.22793579 132.98448181 C0.22850929 128.92287538 0.21675549 124.86138723 0.20278788 120.79980826 C0.19028001 116.55305313 0.18910997 112.30629525 0.18673706 108.05952454 C0.18052246 100.02024034 0.1641119 91.98101058 0.14403808 83.94175035 C0.12167847 74.78824909 0.11068549 65.63474523 0.10064721 56.48122346 C0.07974567 37.65411812 0.04457006 18.82706344 0 0 Z " fill="#4A284F" transform="translate(365,169)"/>
<path d="M0 0 C1.1034375 -0.01160156 2.206875 -0.02320313 3.34375 -0.03515625 C11.03334116 -0.00808022 17.88680663 1.18202721 25.25 3.375 C25.25 4.035 25.25 4.695 25.25 5.375 C25.806875 5.41625 26.36375 5.4575 26.9375 5.5 C30.544395 6.86477108 31.98038496 9.28580176 34.25 12.375 C34.25 13.035 34.25 13.695 34.25 14.375 C35.1471875 14.49875 35.1471875 14.49875 36.0625 14.625 C38.87932273 15.59076779 39.72799132 16.86368567 41.25 19.375 C41.25 20.035 41.25 20.695 41.25 21.375 C41.91 21.375 42.57 21.375 43.25 21.375 C45.80096762 26.01312294 47.05819304 30.26725589 48.25 35.375 C48.58 36.035 48.91 36.695 49.25 37.375 C49.66835674 46.0620546 50.01271003 55.34788527 46.25 63.375 C45.59 63.375 44.93 63.375 44.25 63.375 C43.92 65.025 43.59 66.675 43.25 68.375 C42.59 68.375 41.93 68.375 41.25 68.375 C41.12625 68.973125 41.0025 69.57125 40.875 70.1875 C40.25 72.375 40.25 72.375 38.25 75.375 C37.59 75.375 36.93 75.375 36.25 75.375 C36.146875 75.973125 36.04375 76.57125 35.9375 77.1875 C34.85787905 80.62265756 32.96278522 81.98568295 29.83984375 83.69140625 C28.96457031 84.10261719 28.08929688 84.51382813 27.1875 84.9375 C24.37862483 86.26150724 22.45354957 87.17145043 20.25 89.375 C9.96022166 93.13871087 -1.39063472 94.15124908 -11.75 90.375 C-13.74369031 90.00579809 -15.74279077 89.66174418 -17.75 89.375 C-17.75 88.715 -17.75 88.055 -17.75 87.375 C-19.1421875 87.189375 -19.1421875 87.189375 -20.5625 87 C-23.75 86.375 -23.75 86.375 -26.75 84.375 C-27.03875 83.776875 -27.3275 83.17875 -27.625 82.5625 C-28.69525242 80.19567083 -28.69525242 80.19567083 -31 78.1875 C-34.51775976 74.58979115 -37.0683708 70.61320707 -39.75 66.375 C-40.36875 65.42625 -40.9875 64.4775 -41.625 63.5 C-42.75 61.375 -42.75 61.375 -42.75 58.375 C-43.41 58.375 -44.07 58.375 -44.75 58.375 C-44.75 49.465 -44.75 40.555 -44.75 31.375 C-44.09 31.375 -43.43 31.375 -42.75 31.375 C-42.75 30.055 -42.75 28.735 -42.75 27.375 C-42.09 27.375 -41.43 27.375 -40.75 27.375 C-40.62625 26.818125 -40.5025 26.26125 -40.375 25.6875 C-39.69023145 23.15385636 -38.75866237 20.79578968 -37.75 18.375 C-37.09 18.375 -36.43 18.375 -35.75 18.375 C-35.481875 17.611875 -35.21375 16.84875 -34.9375 16.0625 C-33.79865495 13.48511382 -32.93583329 12.10545136 -30.75 10.375 C-30.09 10.375 -29.43 10.375 -28.75 10.375 C-28.75 9.715 -28.75 9.055 -28.75 8.375 C-25.84451118 6.33330515 -24.34857954 5.375 -20.75 5.375 C-20.75 4.715 -20.75 4.055 -20.75 3.375 C-13.7592118 0.15241715 -7.63378087 -0.07915211 0 0 Z " fill="#9174DA" transform="translate(471.75,417.625)"/>
<path d="M0 0 C0.73412109 -0.00386719 1.46824219 -0.00773437 2.22460938 -0.01171875 C9.48227094 0.00116086 15.50843952 0.68641595 22.0625 4.0625 C23.62097656 4.84947266 23.62097656 4.84947266 25.2109375 5.65234375 C27.6875 7.125 27.6875 7.125 28.6875 9.125 C29.698125 9.57875 30.70875 10.0325 31.75 10.5 C38.51390006 14.17542503 43.42134219 22.93192199 45.6875 30.125 C46.53665409 39.20345618 45.18864915 48.18512069 43.6875 57.125 C43.0275 57.125 42.3675 57.125 41.6875 57.125 C41.6875 58.115 41.6875 59.105 41.6875 60.125 C41.0275 60.125 40.3675 60.125 39.6875 60.125 C39.460625 60.805625 39.23375 61.48625 39 62.1875 C35.42236607 70.19458546 29.23892598 76.93154864 20.96875 80.19921875 C18.5256773 80.89813548 18.5256773 80.89813548 17.6875 83.125 C14.21372038 84.08725105 10.89864435 84.25337212 7.30859375 84.2578125 C6.30505859 84.25910156 5.30152344 84.26039063 4.26757812 84.26171875 C3.23052734 84.25785156 2.19347656 84.25398438 1.125 84.25 C0.08408203 84.25386719 -0.95683594 84.25773437 -2.02929688 84.26171875 C-3.03154297 84.26042969 -4.03378906 84.25914062 -5.06640625 84.2578125 C-5.97720947 84.25668457 -6.8880127 84.25555664 -7.82641602 84.25439453 C-10.13241558 84.13437295 -12.1038344 83.77447474 -14.3125 83.125 C-14.3125 82.465 -14.3125 81.805 -14.3125 81.125 C-15.04855469 81.02058594 -15.78460938 80.91617188 -16.54296875 80.80859375 C-25.08942767 78.69910107 -31.63561335 70.12382332 -36.3125 63.125 C-41.73120854 52.70007976 -41.69834957 38.71560934 -39.1484375 27.42578125 C-37.70434398 23.45115003 -35.34017097 20.07039731 -32.3125 17.125 C-31.6525 17.125 -30.9925 17.125 -30.3125 17.125 C-30.21195312 16.53847656 -30.11140625 15.95195312 -30.0078125 15.34765625 C-28.58586313 10.80221137 -24.43215468 7.3621862 -20.3984375 5.0078125 C-17.58163491 3.74924113 -15.41157708 3.125 -12.3125 3.125 C-12.3125 2.465 -12.3125 1.805 -12.3125 1.125 C-8.20578202 -0.02326184 -4.23621357 -0.02196826 0 0 Z " fill="#FBFBFC" transform="translate(314.3125,290.875)"/>
<path d="M0 0 C0.66 0 1.32 0 2 0 C2.13277344 0.73605469 2.26554687 1.47210938 2.40234375 2.23046875 C2.57894531 3.20628906 2.75554687 4.18210938 2.9375 5.1875 C3.11152344 6.15042969 3.28554688 7.11335937 3.46484375 8.10546875 C3.81025208 9.97369922 4.17357582 11.83874752 4.55859375 13.69921875 C5.28572587 17.48931451 5.22216409 20.33350774 4 24 C4.165 24.9075 4.33 25.815 4.5 26.75 C5.06960371 30.4524241 4.55505555 33.2996297 4 37 C3.50561032 43.17964737 3.50561032 43.17964737 5 49 C5.12610202 51.19822305 5.1879623 53.40022037 5.22119141 55.60180664 C5.23845024 56.61931503 5.23845024 56.61931503 5.25605774 57.65737915 C5.29284133 59.90825845 5.32244688 62.1591656 5.3515625 64.41015625 C5.37468714 65.97757855 5.39807755 67.54499696 5.42172241 69.1124115 C5.47023551 72.40522709 5.51514151 75.69806798 5.55761719 78.9909668 C5.61213893 83.1916695 5.67604305 87.39216645 5.74279213 91.59269047 C5.79315554 94.834761 5.8381596 98.0768898 5.88163376 101.31905937 C5.90306578 102.86628091 5.92619067 104.41348002 5.9510994 105.96064949 C6.07339083 113.72337352 6.0390123 121.2938275 5 129 C4.92045547 130.76438777 4.86967507 132.53069682 4.8671875 134.296875 C4.86589844 135.19277344 4.86460937 136.08867187 4.86328125 137.01171875 C4.86714844 137.91535156 4.87101562 138.81898438 4.875 139.75 C4.87113281 140.66910156 4.86726563 141.58820313 4.86328125 142.53515625 C4.86457031 143.42589844 4.86585938 144.31664062 4.8671875 145.234375 C4.86831543 146.03069336 4.86944336 146.82701172 4.87060547 147.64746094 C4.93600278 150.05987518 4.93600278 150.05987518 5.59814453 152.59082031 C6.17904513 156.0734006 4.72721247 158.02919455 3 161 C2.34 161 1.68 161 1 161 C0.99576806 160.21516613 0.99153612 159.43033226 0.98717594 158.62171555 C0.88392142 139.53480296 0.77529144 120.44792792 0.66066074 101.36108017 C0.60535643 92.13086971 0.551879 82.90065538 0.50268555 73.67041016 C0.45980953 65.6263816 0.41352288 57.58238118 0.36312145 49.53839612 C0.33654808 45.27823859 0.31169567 41.01808653 0.29092598 36.75789642 C0.27132846 32.74918106 0.24717534 28.74051912 0.21950912 24.73185158 C0.2101552 23.25966424 0.20247397 21.78746519 0.19658089 20.31525993 C0.18829162 18.30664627 0.17342614 16.29806294 0.15821838 14.28948975 C0.15176583 13.16490231 0.14531328 12.04031487 0.1386652 10.88164902 C0.01924392 8.39991456 -0.36950886 6.38089999 -1 4 C-0.5625 1.75 -0.5625 1.75 0 0 Z " fill="#422A5B" transform="translate(270,165)"/>
<path d="M0 0 C2.03384734 4.06769468 2.12395394 7.77619074 2.12025452 12.28948975 C2.12162918 13.58235397 2.12300385 14.8752182 2.12442017 16.20726013 C2.12088123 17.63784813 2.11724642 19.0684359 2.11352539 20.49902344 C2.11324329 22.00698342 2.11340171 23.51494354 2.1139679 25.02290344 C2.11425496 29.11552328 2.1083728 33.20811385 2.10139394 37.30072689 C2.0951454 41.57818898 2.09455541 45.85565173 2.09336853 50.13311768 C2.09025965 58.23262266 2.08205221 66.33211416 2.07201904 74.43161321 C2.06084417 83.65281041 2.05534398 92.87400826 2.05032361 102.09521055 C2.03986925 121.06348135 2.02227836 140.03173959 2 159 C2.66 159 3.32 159 4 159 C3.67 162.96 3.34 166.92 3 171 C0.47646134 168.47646134 0.03460311 166.77576474 -0.12304783 163.24139881 C-0.12212604 162.11588958 -0.12120424 160.99038034 -0.12025452 159.83076477 C-0.12162918 158.53927521 -0.12300385 157.24778564 -0.12442017 155.91716003 C-0.120881 154.48294044 -0.11724619 153.04872108 -0.11352539 151.61450195 C-0.11324337 150.10668947 -0.11340155 148.59887685 -0.1139679 147.09106445 C-0.11425528 142.99425333 -0.10836805 138.89747138 -0.10139394 134.80066705 C-0.09515061 130.52052981 -0.09455582 126.24039194 -0.09336853 121.96025085 C-0.09025811 113.85362939 -0.08204861 105.74702137 -0.07201904 97.64040583 C-0.06084894 88.41197681 -0.05534519 79.18354715 -0.05032361 69.95511305 C-0.03986577 50.97006773 -0.0222719 31.98503495 0 13 C-1.98 13.33 -3.96 13.66 -6 14 C-6 12.68 -6 11.36 -6 10 C-5.34 10 -4.68 10 -4 10 C-3.896875 8.906875 -3.79375 7.81375 -3.6875 6.6875 C-3.02692273 3.14440371 -2.7972908 2.06756277 0 0 Z " fill="#7D63B9" transform="translate(269,167)"/>
<path d="M0 0 C4.90847132 4.75013353 4.90847132 4.75013353 5.14526367 7.98364258 C5.1698416 10.59339563 5.18566076 13.20262206 5.1875 15.8125 C5.19974609 16.71548828 5.21199219 17.61847656 5.22460938 18.54882812 C5.23470822 23.13033739 5.20121607 26.84988116 3 31 C1.90493508 27.71480525 1.90039392 25.26336585 1.9375 21.8125 C1.94652344 20.72582031 1.95554687 19.63914062 1.96484375 18.51953125 C1.97644531 17.68808594 1.98804688 16.85664063 2 16 C1.5153125 16.48210937 1.030625 16.96421875 0.53125 17.4609375 C-7.33068538 24.86929968 -13.94185053 25.24757304 -24.36523438 25.01538086 C-27.78256365 24.943294 -30.71118925 25.10305161 -34 26 C-35.0725 25.814375 -36.145 25.62875 -37.25 25.4375 C-41.1767117 24.97938364 -43.45180212 25.51319291 -47.15234375 26.58984375 C-49.6335611 27.14064253 -51.55699726 26.59424391 -54 26 C-56.72502965 26.37722015 -56.72502965 26.37722015 -59 27 C-59 26.34 -59 25.68 -59 25 C-63.0100934 24.82135369 -63.0100934 24.82135369 -67 25 C-67.66 25.66 -68.32 26.32 -69 27 C-73.45263035 27.40478458 -76.84782943 26.58177926 -81 25 C-81 24.67 -81 24.34 -81 24 C-75.21335355 22.84130973 -69.41765501 22.61705514 -63.5390625 22.31640625 C-61.27081954 22.1923092 -59.00259078 22.06795219 -56.734375 21.94335938 C-53.17756348 21.75162347 -49.62066645 21.56227512 -46.06347656 21.37768555 C-42.61742947 21.19745795 -39.1720183 21.00756261 -35.7265625 20.81640625 C-34.1433873 20.73816368 -34.1433873 20.73816368 -32.52822876 20.65834045 C-28.00492544 20.40222242 -23.77255936 20.05669813 -19.39208984 18.86303711 C-18.2727002 18.57823486 -17.15331055 18.29343262 -16 18 C-14 19.375 -14 19.375 -13 21 C-13 20.34 -13 19.68 -13 19 C-11.58521865 18.35004703 -10.16808513 17.70521278 -8.75 17.0625 C-7.56664062 16.52302734 -7.56664062 16.52302734 -6.359375 15.97265625 C-4 15 -4 15 -1.828125 14.49609375 C0.23171222 14.09977963 0.23171222 14.09977963 2 12 C1.66887313 7.89402683 1.15559618 3.96204403 0 0 Z " fill="#936BCD" transform="translate(456,332)"/>
<path d="M0 0 C-0.51949219 0.25394531 -1.03898437 0.50789063 -1.57421875 0.76953125 C-4.70876033 2.31652312 -7.76831272 3.85782826 -10.75 5.6875 C-12.91714941 6.95167049 -14.59670244 7.39917561 -17 8 C-19.5291601 9.4267057 -21.94947819 10.96676197 -24.375 12.5625 C-27 14 -27 14 -30.5625 14.9375 C-34.04002171 15.71090449 -34.04002171 15.71090449 -36 18.0625 C-38 20 -38 20 -41.375 20.4375 C-45.21580786 21.03348743 -46.60458194 22.07580865 -49.3984375 24.66796875 C-51.75065808 26.62432782 -54.36815295 27.7969309 -57.12109375 29.09765625 C-59.51113426 30.24547196 -61.73287349 31.62779185 -64 33 C-66 34 -68 35 -70 36 C-70.7425 36.474375 -71.485 36.94875 -72.25 37.4375 C-75.64322907 39.36547106 -79.15766896 40.72665456 -82.79296875 42.1328125 C-84.99337257 42.9595443 -84.99337257 42.9595443 -87 44 C-86.6875 41.625 -86.6875 41.625 -86 39 C-82.77208445 36.8480563 -81.71599191 36.79913557 -78 37 C-77.9175 36.38125 -77.835 35.7625 -77.75 35.125 C-77 33 -77 33 -75.2421875 31.92578125 C-72.22891506 30.68162521 -69.22450017 30.20784637 -66.0234375 29.66015625 C-63.62548181 29.10877072 -63.62548181 29.10877072 -62 26 C-60.906875 25.71125 -59.81375 25.4225 -58.6875 25.125 C-54.87665068 24.27810316 -54.87665068 24.27810316 -52.4375 21.4375 C-49.59318284 18.59318284 -47.93871594 18.27479414 -44 18 C-44 17.34 -44 16.68 -44 16 C-43.03513672 15.70609375 -43.03513672 15.70609375 -42.05078125 15.40625 C-36.31531012 13.50806269 -31.50401881 11.18448378 -26.4375 7.875 C-21.62214793 4.78105051 -17.79989201 3.11775307 -12.15234375 2.3671875 C-9.70555053 2.05698335 -9.70555053 2.05698335 -6.625 0.3125 C-3.64487124 -1.17756438 -3.02786321 -0.95989706 0 0 Z " fill="#37254C" transform="translate(213,383)"/>
<path d="M0 0 C0.33 0 0.66 0 1 0 C1 38.28 1 76.56 1 116 C0.34 116 -0.32 116 -1 116 C-0.96519531 117.30710937 -0.96519531 117.30710937 -0.9296875 118.640625 C-0.80811514 126.66440105 -1.38757615 134.13943373 -3 142 C-3.66 142 -4.32 142 -5 142 C-4.9278125 141.28457031 -4.855625 140.56914062 -4.78125 139.83203125 C-4.47617361 136.55669726 -4.22733235 133.28165248 -4 130 C-3.92007812 128.89785156 -3.84015625 127.79570312 -3.7578125 126.66015625 C-3.35031219 116.58051616 -6.23950853 109.51165719 -13 102 C-12.505 101.01 -12.505 101.01 -12 100 C-9.39378599 103.04058301 -7.02300659 105.96516145 -4.8125 109.3125 C-3.27484577 112.06736416 -3.27484577 112.06736416 -1 113 C-1.1753125 111.74316406 -1.350625 110.48632812 -1.53125 109.19140625 C-2.139131 103.72154745 -1.85399861 98.41694659 -1.5 92.9375 C-1.37863675 91.05120523 -1.26393563 89.16446876 -1.15625 87.27734375 C-1.10275391 86.45484131 -1.04925781 85.63233887 -0.99414062 84.78491211 C-1.0002888 81.86273492 -1.37038931 79.06469594 -1.76077271 76.17268372 C-2.18308868 72.33717219 -2.16239938 68.50352164 -2.16796875 64.6484375 C-2.17202225 63.76316376 -2.17607574 62.87789001 -2.18025208 61.96578979 C-2.18967285 59.10215611 -2.18965159 56.23864704 -2.1875 53.375 C-2.1882251 52.4015564 -2.1889502 51.42811279 -2.18969727 50.4251709 C-2.18830888 33.54037007 -1.50232458 16.8212406 0 0 Z " fill="#8963B6" transform="translate(363,204)"/>
<path d="M0 0 C0.91652344 0.01160156 1.83304687 0.02320313 2.77734375 0.03515625 C3.69644531 0.04417969 4.61554688 0.05320312 5.5625 0.0625 C6.27277344 0.07410156 6.98304688 0.08570313 7.71484375 0.09765625 C7.71484375 0.42765625 7.71484375 0.75765625 7.71484375 1.09765625 C6.86664063 1.32839844 6.0184375 1.55914062 5.14453125 1.796875 C-2.53671852 3.93243126 -9.95884767 6.33850059 -17.421875 9.14453125 C-20.28515625 10.09765625 -20.28515625 10.09765625 -23.28515625 10.09765625 C-23.28515625 10.75765625 -23.28515625 11.41765625 -23.28515625 12.09765625 C-27.67286231 14.18994201 -31.89341055 16.12352196 -36.66015625 17.16015625 C-40.43089213 18.13534656 -40.7572477 18.55074087 -43.28515625 21.09765625 C-48.02415422 23.54106621 -52.82612169 25.11549867 -58.09765625 25.84765625 C-63.94929862 26.85053206 -68.24221467 29.99142946 -73.15234375 33.18359375 C-77.15532937 35.62930816 -80.74085307 36.98020465 -85.28515625 38.09765625 C-85.94515625 37.76765625 -86.60515625 37.43765625 -87.28515625 37.09765625 C-77.67904392 31.2991981 -77.67904392 31.2991981 -73.47265625 28.97265625 C-70.31056477 27.23228949 -70.31056477 27.23228949 -67.91015625 25.09765625 C-63.04497776 21.39085359 -57.92216545 19.04640158 -51.78515625 18.66015625 C-47.30144159 18.34210729 -44.48298517 16.68691709 -40.69921875 14.3671875 C-37.122554 12.48625539 -33.39598179 11.66163481 -29.47265625 10.7734375 C-28.75078125 10.55042969 -28.02890625 10.32742188 -27.28515625 10.09765625 C-26.95515625 9.43765625 -26.62515625 8.77765625 -26.28515625 8.09765625 C-19.71914221 5.05486926 -12.64693751 3.3274234 -5.62109375 1.7109375 C-3.02945663 1.03052441 -2.66237635 0.11377677 0 0 Z " fill="#624F90" transform="translate(256.28515625,360.90234375)"/>
<path d="M0 0 C2 2 2 2 2.23046875 4.7578125 C2.01598028 21.56590873 2.01598028 21.56590873 -1 28 C-1.66 28 -2.32 28 -3 28 C-3.495 30.475 -3.495 30.475 -4 33 C-4.66 33 -5.32 33 -6 33 C-6.185625 33.8971875 -6.185625 33.8971875 -6.375 34.8125 C-7 37 -7 37 -9 40 C-9.66 40 -10.32 40 -11 40 C-11.103125 40.598125 -11.20625 41.19625 -11.3125 41.8125 C-12.39212095 45.24765756 -14.28721478 46.61068295 -17.41015625 48.31640625 C-18.28542969 48.72761719 -19.16070312 49.13882813 -20.0625 49.5625 C-22.87137517 50.88650724 -24.79645043 51.79645043 -27 54 C-37.28977834 57.76371087 -48.64063472 58.77624908 -59 55 C-60.99369031 54.63079809 -62.99279077 54.28674418 -65 54 C-65 53.34 -65 52.68 -65 52 C-66.3921875 51.814375 -66.3921875 51.814375 -67.8125 51.625 C-71 51 -71 51 -74 49 C-73.67 48.34 -73.34 47.68 -73 47 C-70.69 47.66 -68.38 48.32 -66 49 C-66 49.66 -66 50.32 -66 51 C-58.04264468 52.88849677 -50.15484303 53.55348122 -42 54 C-42 53.34 -42 52.68 -42 52 C-39 51 -39 51 -36 52 C-30.90402349 51.70023668 -27.20194266 50.33385681 -22.796875 47.9375 C-21 47 -21 47 -18 46 C-18 45.34 -18 44.68 -18 44 C-17.38125 43.938125 -16.7625 43.87625 -16.125 43.8125 C-13.77795791 43.18940766 -13.77795791 43.18940766 -12.875 40.75 C-12.441875 39.38875 -12.441875 39.38875 -12 38 C-10.22222222 33.22222222 -10.22222222 33.22222222 -8 31 C-7.01 31 -6.02 31 -5 31 C-5.061875 30.0925 -5.12375 29.185 -5.1875 28.25 C-4.98313144 24.70761168 -4.47346304 23.47346304 -2 21 C-1.34 21 -0.68 21 0 21 C0 14.07 0 7.14 0 0 Z " fill="#D3CAF5" transform="translate(519,453)"/>
<path d="M0 0 C2.81589032 2.81589032 2.28227224 4.65488875 2.3347168 8.60180664 C2.34636871 9.28014557 2.35802063 9.9584845 2.37002563 10.65737915 C2.40611104 12.90827967 2.42791946 15.15907087 2.44921875 17.41015625 C2.47047725 18.9775843 2.49244473 20.54500288 2.51509094 22.1124115 C2.56056064 25.40522 2.59932046 28.69801759 2.63305664 31.9909668 C2.67635092 36.19172598 2.73310439 40.39216264 2.7946043 44.59269047 C2.84105991 47.83476285 2.88173322 51.07688756 2.92057228 54.31905937 C2.93950454 55.86627426 2.95984344 57.41347265 2.98166466 58.96064949 C3.08693953 66.72133826 3.03367147 74.29606377 2 82 C1.92036725 83.77611073 1.86967183 85.55413796 1.8671875 87.33203125 C1.86589844 88.23244141 1.86460937 89.13285156 1.86328125 90.06054688 C1.86714844 90.96869141 1.87101562 91.87683594 1.875 92.8125 C1.87113281 93.73998047 1.86726563 94.66746094 1.86328125 95.62304688 C1.86457031 96.51701172 1.86585938 97.41097656 1.8671875 98.33203125 C1.86831543 99.13358643 1.86944336 99.9351416 1.87060547 100.76098633 C1.99784771 102.96275724 2.39129339 104.88524323 3 107 C2.34 107 1.68 107 1 107 C0.505 107.99 0.505 107.99 0 109 C-0.99096953 106.02709141 -1.12232767 104.11504379 -1.11523438 101.01464844 C-1.114328 99.45052216 -1.114328 99.45052216 -1.11340332 97.85479736 C-1.10367493 96.12456329 -1.10367493 96.12456329 -1.09375 94.359375 C-1.09016479 93.13579285 -1.08657959 91.91221069 -1.08288574 90.65155029 C-1.01254572 73.73998491 -0.7687926 56.82950443 -0.53643799 39.91955566 C-0.47474186 35.39951368 -0.41521183 30.87944314 -0.35546875 26.359375 C-0.23903129 17.57288829 -0.12030118 8.78643466 0 0 Z " fill="#322341" transform="translate(273,212)"/>
<path d="M0 0 C0 0.66 0 1.32 0 2 C-6.625 4.875 -6.625 4.875 -10 6 C-10.33 6.99 -10.66 7.98 -11 9 C-12.11375 9.0825 -13.2275 9.165 -14.375 9.25 C-15.57125 9.4975 -16.7675 9.745 -18 10 C-18.31453125 10.65226562 -18.6290625 11.30453125 -18.953125 11.9765625 C-20 14 -20 14 -22.0234375 14.7578125 C-22.79945313 14.87898438 -23.57546875 15.00015625 -24.375 15.125 C-27.59359175 15.65246152 -30.22470488 16.22723439 -33 18 C-33.33 18.99 -33.66 19.98 -34 21 C-35.84765625 21.73046875 -35.84765625 21.73046875 -38.0625 22.1875 C-38.79597656 22.34605469 -39.52945313 22.50460937 -40.28515625 22.66796875 C-40.85105469 22.77753906 -41.41695313 22.88710938 -42 23 C-42 23.99 -42 24.98 -42 26 C-42.66 26 -43.32 26 -44 26 C-44.33 26.99 -44.66 27.98 -45 29 C-45.33 28.34 -45.66 27.68 -46 27 C-45.41992188 26.19949219 -45.41992188 26.19949219 -44.828125 25.3828125 C-40.95605344 19.84306655 -38.25829162 14.36306875 -36 8 C-34.68 8 -33.36 8 -32 8 C-31.67 9.65 -31.34 11.3 -31 13 C-26.68994912 13 -20.61612536 8.37224241 -17 6.1875 C-15 5 -15 5 -13 5 C-12.7525 4.360625 -12.505 3.72125 -12.25 3.0625 C-11 1 -11 1 -9.3125 0.25 C-6.19853938 -0.08664439 -3.12892809 -0.06017169 0 0 Z " fill="#8764C6" transform="translate(169,399)"/>
<path d="M0 0 C0.33 0 0.66 0 1 0 C1 49.17 1 98.34 1 149 C-1.10706527 144.78586946 -1.26690852 141.94499828 -1.21118164 137.39941406 C-1.2098674 136.6375882 -1.20855316 135.87576233 -1.2071991 135.09085083 C-1.20069959 132.56565015 -1.18022849 130.04075112 -1.16015625 127.515625 C-1.15387435 125.74038013 -1.14863809 123.96513128 -1.14439392 122.18988037 C-1.13107256 117.49724972 -1.10668142 112.80474847 -1.07904053 108.11218262 C-1.03093733 99.78837655 -0.99855222 91.46452641 -0.97265625 83.140625 C-0.96930897 82.25222427 -0.96596169 81.36382355 -0.96251297 80.44850159 C-0.92317788 68.79737032 -1.05145254 57.19345476 -1.72901917 45.55767822 C-2.09144896 39.18289793 -2.09144896 39.18289793 -1 37 C-0.95237211 33.97265229 -0.9573924 30.96376086 -1 27.9375 C-1.07479376 18.58488083 -0.67646481 9.32555053 0 0 Z " fill="#967CD7" transform="translate(268,180)"/>
<path d="M0 0 C2.03384734 4.06769468 2.12395394 7.77619074 2.12025452 12.28948975 C2.12162918 13.58235397 2.12300385 14.8752182 2.12442017 16.20726013 C2.12088123 17.63784813 2.11724642 19.0684359 2.11352539 20.49902344 C2.11324329 22.00698342 2.11340171 23.51494354 2.1139679 25.02290344 C2.11425496 29.11552328 2.1083728 33.20811385 2.10139394 37.30072689 C2.0951454 41.57818898 2.09455541 45.85565173 2.09336853 50.13311768 C2.09025965 58.23262266 2.08205221 66.33211416 2.07201904 74.43161321 C2.06084417 83.65281041 2.05534398 92.87400826 2.05032361 102.09521055 C2.03986925 121.06348135 2.02227836 140.03173959 2 159 C1.67 159 1.34 159 1 159 C0.99576806 158.22786195 0.99153612 157.4557239 0.98717594 156.66018772 C0.88401353 137.89978912 0.77539771 119.13942942 0.66066074 100.37909794 C0.605308 91.3068631 0.5518227 82.23462433 0.50268555 73.16235352 C0.45986876 65.25788818 0.41359721 57.35345205 0.36312145 49.44903177 C0.33650025 45.26106995 0.31164676 41.073114 0.29092598 36.88511848 C0.27139109 32.94781864 0.24725696 29.01057448 0.21950912 25.0733242 C0.21012195 23.62406548 0.20245271 22.17479451 0.19658089 20.72551727 C0.18834801 18.75526542 0.17348238 16.78504452 0.15821838 14.81483459 C0.15176583 13.70960481 0.14531328 12.60437502 0.1386652 11.46565342 C0.27780452 9.0557088 0.27780452 9.0557088 -1 8 C-1.125 4.5 -1.125 4.5 -1 1 C-0.67 0.67 -0.34 0.34 0 0 Z " fill="#675397" transform="translate(269,167)"/>
<path d="M0 0 C0.33 0 0.66 0 1 0 C1.00238835 0.69391027 1.00477671 1.38782055 1.00723743 2.10275841 C1.06631425 18.969219 1.14181695 35.83551732 1.23571491 52.70181847 C1.28072468 60.85816534 1.32012723 69.01446804 1.34643555 77.17089844 C1.36937385 84.27814014 1.40272474 91.38524266 1.44870156 98.49237406 C1.4726904 102.25730066 1.4913819 106.02208895 1.49761391 109.7870903 C1.50475733 113.98505143 1.5351424 118.18252962 1.56762695 122.38037109 C1.56619186 123.63553024 1.56475677 124.89068939 1.5632782 126.18388367 C1.57581635 127.32254379 1.58835449 128.46120392 1.60127258 129.6343689 C1.60588155 130.62806173 1.61049051 131.62175457 1.61523914 132.64555931 C1.74221023 133.42252474 1.86918131 134.19949017 2 135 C2.99 135.66 3.98 136.32 5 137 C4.01 138.98 3.02 140.96 2 143 C1.34 143 0.68 143 0 143 C0 95.81 0 48.62 0 0 Z " fill="#503B76" transform="translate(271,183)"/>
<path d="M0 0 C2.13093906 1.06546953 3.36587557 2.29159719 5 4 C-3.46035679 5.07546908 -11.8876256 5.341704 -20.40625 5.60546875 C-26.01714558 5.7955575 -31.53821705 6.11065737 -37.10986328 6.79931641 C-40.39287724 7.14788751 -43.64258381 6.96860001 -46.93359375 6.83984375 C-49.22573636 6.79216818 -49.22573636 6.79216818 -51 9 C-55.45263035 9.40478458 -58.84782943 8.58177926 -63 7 C-63 6.67 -63 6.34 -63 6 C-57.19118781 4.83462883 -51.37024577 4.6164497 -45.46875 4.31640625 C-43.19139066 4.19234322 -40.91404736 4.06798526 -38.63671875 3.94335938 C-35.06217805 3.75133047 -31.48755216 3.56185872 -27.91259766 3.37768555 C-24.4517085 3.19795166 -20.991506 3.00789398 -17.53125 2.81640625 C-15.93259094 2.73816368 -15.93259094 2.73816368 -14.30163574 2.65834045 C-9.15347485 2.36688578 -4.87620684 1.79787846 0 0 Z " fill="#7B53AD" transform="translate(438,350)"/>
<path d="M0 0 C1.59811523 0.00676758 1.59811523 0.00676758 3.22851562 0.01367188 C5.83990291 0.02538213 8.45117124 0.04178276 11.0625 0.0625 C11.5575 1.0525 11.5575 1.0525 12.0625 2.0625 C11.506194 2.09786362 10.949888 2.13322723 10.37672424 2.16966248 C4.55217327 2.54033968 -1.27218197 2.91398629 -7.09643555 3.28930664 C-9.26598372 3.42873028 -11.43557962 3.56741346 -13.60522461 3.70532227 C-16.73564488 3.90443281 -19.86588011 4.10626376 -22.99609375 4.30859375 C-24.43570717 4.39928383 -24.43570717 4.39928383 -25.90440369 4.49180603 C-37.10720597 4.50698605 -37.10720597 4.50698605 -47 8.625 C-48.4540625 9.8315625 -48.4540625 9.8315625 -49.9375 11.0625 C-50.9275 10.0725 -51.9175 9.0825 -52.9375 8.0625 C-52.6075 7.0725 -52.2775 6.0825 -51.9375 5.0625 C-49.6275 5.0625 -47.3175 5.0625 -44.9375 5.0625 C-44.9375 4.4025 -44.9375 3.7425 -44.9375 3.0625 C-43.81106079 2.97947632 -43.81106079 2.97947632 -42.66186523 2.89477539 C-39.23272322 2.64063754 -35.80386475 2.38285063 -32.375 2.125 C-31.19357422 2.03798828 -30.01214844 1.95097656 -28.79492188 1.86132812 C-22.04935805 1.3600421 -22.04935805 1.3600421 -15.34375 0.5 C-10.23187124 -0.15657158 -5.14735777 -0.04153672 0 0 Z " fill="#664287" transform="translate(414.9375,350.9375)"/>
<path d="M0 0 C-2.07995768 2.2597071 -3.98569289 3.67313259 -6.75 5 C-7.45898438 5.34289062 -8.16796875 5.68578125 -8.8984375 6.0390625 C-10.70334895 6.86435658 -12.53703546 7.62619963 -14.375 8.375 C-17.43513365 9.74678405 -20.0462226 11.22764873 -22.875 13 C-27.32265943 15.7270817 -31.83642661 18.00957321 -37 19 C-37.66 18.67 -38.32 18.34 -39 18 C-29.39388767 12.20154185 -29.39388767 12.20154185 -25.1875 9.875 C-22.02540852 8.13463324 -22.02540852 8.13463324 -19.625 6 C-13.43440116 1.28335327 -7.72814871 -0.56204718 0 0 Z " fill="#9579DA" transform="translate(208,380)"/>
<path d="M0 0 C0.66 0.33 1.32 0.66 2 1 C-2.58898998 6.07204156 -8.85061072 8.35086863 -15 11 C-16.7325 11.7734375 -16.7325 11.7734375 -18.5 12.5625 C-21.8620624 13.94334706 -25.22871004 15.07153919 -28.6875 16.17578125 C-31.01953296 17.00696192 -33.15740226 18.02808112 -35.375 19.125 C-40.44133685 21.47434558 -45.47510981 21.79346205 -51 22 C-50.67 21.34 -50.34 20.68 -50 20 C-47.8046875 19.359375 -47.8046875 19.359375 -44.875 18.75 C-39.00109762 17.38364861 -33.62068923 15.39243389 -28.07763672 13.06933594 C-23.26072558 11.05403195 -23.26072558 11.05403195 -20.625 10.5078125 C-20.08875 10.34023438 -19.5525 10.17265625 -19 10 C-18.67 9.01 -18.34 8.02 -18 7 C-16.906875 6.9175 -15.81375 6.835 -14.6875 6.75 C-10.96799289 6.41868763 -10.96799289 6.41868763 -9.5 4 C-8 2 -8 2 -4.375 1.3125 C-3.26125 1.209375 -2.1475 1.10625 -1 1 C-0.67 0.67 -0.34 0.34 0 0 Z " fill="#BCA8ED" transform="translate(402,414)"/>
<path d="M0 0 C0.66 0 1.32 0 2 0 C2.33 1.98 2.66 3.96 3 6 C3.66 6 4.32 6 5 6 C5 7.98 5 9.96 5 12 C5.99 12.33 6.98 12.66 8 13 C9.99396257 15.66083969 12 18.61242325 12 22 C12.66 22 13.32 22 14 22 C15.01866229 23.65532623 16.01810813 25.32260138 17 27 C17.66 27.33 18.32 27.66 19 28 C19.68132451 29.66072849 20.34742127 31.327767 21 33 C21.66 33.66 22.32 34.32 23 35 C22.625 37.125 22.625 37.125 22 39 C17.45860343 34.18988174 13.82757365 29.32325388 10.546875 23.58203125 C8.9213458 20.86871105 7.12176158 18.36103489 5.25 15.8125 C1.48176579 10.5136806 0 6.59110239 0 0 Z " fill="#492E53" transform="translate(290,235)"/>
<path d="M0 0 C0.33 0 0.66 0 1 0 C1 25.41 1 50.82 1 77 C1.99 77 2.98 77 4 77 C3.67 80.96 3.34 84.92 3 89 C-0.26699134 85.73300866 -0.11583194 82.73742454 -0.12442017 78.29598999 C-0.12082489 77.52131378 -0.11722961 76.74663757 -0.11352539 75.94848633 C-0.11367142 75.12874832 -0.11381744 74.30901031 -0.1139679 73.46443176 C-0.11327096 70.75360472 -0.10548878 68.0428463 -0.09765625 65.33203125 C-0.09579129 63.45301857 -0.09436776 61.5740054 -0.09336853 59.69499207 C-0.08954948 54.74824685 -0.07972438 49.80153098 -0.06866455 44.85479736 C-0.0584373 39.80749915 -0.05386809 34.76019621 -0.04882812 29.71289062 C-0.03810159 19.80858086 -0.02103248 9.90429287 0 0 Z " fill="#826CB7" transform="translate(269,249)"/>
<path d="M0 0 C-5.42749872 4.42240637 -11.35238978 5.62330129 -18.0625 7.12109375 C-21.10339178 8.03093504 -23.33150166 9.30627543 -26 11 C-29.96790149 12.78199169 -34.01129004 14.04490893 -38.25 15 C-41.6532162 15.90752432 -43.44832146 16.66096134 -46 19 C-46 16 -46 16 -44.5625 14.4375 C-41.5035278 12.7214912 -38.68169603 12.145346 -35.26171875 11.47265625 C-32.42134871 10.87907287 -29.72851937 9.97946849 -27 9 C-27 8.34 -27 7.68 -27 7 C-8.91271963 -0.58126432 -8.91271963 -0.58126432 0 0 Z " fill="#412E56" transform="translate(260,364)"/>
<path d="M0 0 C2.475 0.495 2.475 0.495 5 1 C4.67 1.99 4.34 2.98 4 4 C1.08325496 5.04796862 -1.6914673 5.88122263 -4.6875 6.625 C-5.53932861 6.84373779 -6.39115723 7.06247559 -7.26879883 7.2878418 C-14.51471364 9.06147884 -21.53023822 9.8659586 -29 10 C-25.06261362 6.06261362 -20.82751436 4.77269557 -15.36328125 4.2421875 C-12.41298112 3.93984269 -9.49356646 3.51450313 -6.5625 3.0625 C-5.53253906 2.90910156 -4.50257813 2.75570313 -3.44140625 2.59765625 C-2.63574219 2.40042969 -1.83007812 2.20320313 -1 2 C-0.67 1.34 -0.34 0.68 0 0 Z " fill="#C4AFE1" transform="translate(346,435)"/>
<path d="M0 0 C0.33 0 0.66 0 1 0 C1.02465746 4.1117256 1.04283959 8.22342278 1.05493164 12.33520508 C1.0599708 13.73495228 1.06680216 15.1346942 1.07543945 16.53442383 C1.0875232 18.54245777 1.09269807 20.55052957 1.09765625 22.55859375 C1.10289307 23.76829834 1.10812988 24.97800293 1.11352539 26.22436523 C1 29 1 29 0 30 C-0.21413131 33.02460477 -0.37767876 36.03391676 -0.5 39.0625 C-0.75160457 45.09635024 -1.16983424 51.01588848 -2 57 C-2.66 57 -3.32 57 -4 57 C-3.9278125 56.28457031 -3.855625 55.56914062 -3.78125 54.83203125 C-3.47617361 51.55669726 -3.22733235 48.28165248 -3 45 C-2.92007812 43.89785156 -2.84015625 42.79570312 -2.7578125 41.66015625 C-2.35031219 31.58051616 -5.23950853 24.51165719 -12 17 C-11.67 16.34 -11.34 15.68 -11 15 C-8.39378599 18.04058301 -6.02300659 20.96516145 -3.8125 24.3125 C-2.27484577 27.06736416 -2.27484577 27.06736416 0 28 C-0.17402344 26.72253906 -0.34804688 25.44507813 -0.52734375 24.12890625 C-1.0965489 19.00605993 -0.9088607 14.06921196 -0.5625 8.9375 C-0.51029297 8.07189453 -0.45808594 7.20628906 -0.40429688 6.31445312 C-0.2763539 4.20920968 -0.13916029 2.10453172 0 0 Z " fill="#A589C6" transform="translate(362,289)"/>
<path d="M0 0 C0.66 0 1.32 0 2 0 C2 0.99 2 1.98 2 3 C2.66 3 3.32 3 4 3 C4 3.66 4 4.32 4 5 C4.99 5 5.98 5 7 5 C7.66 5.66 8.32 6.32 9 7 C9.66 7 10.32 7 11 7 C11.6496875 7.680625 11.6496875 7.680625 12.3125 8.375 C14.35628817 10.34309231 16.34530324 11.06726871 19 12 C19 12.99 19 13.98 19 15 C21.475 15.99 21.475 15.99 24 17 C24 17.66 24 18.32 24 19 C22.66666667 18.33333333 21.33333333 17.66666667 20 17 C19.278125 16.67 18.55625 16.34 17.8125 16 C16 15 16 15 15 13 C5.28607706 6.01671899 -7.55534684 6.61601751 -19 6 C-19 5.67 -19 5.34 -19 5 C-12.73 5 -6.46 5 0 5 C0 3.35 0 1.7 0 0 Z " fill="#876F99" transform="translate(326,285)"/>
<path d="M0 0 C0.33 0 0.66 0 1 0 C1 21.78 1 43.56 1 66 C0.67 66 0.34 66 0 66 C-0.02505615 65.26475098 -0.0501123 64.52950195 -0.07592773 63.77197266 C-0.1931045 60.38952308 -0.31527123 57.00727064 -0.4375 53.625 C-0.47681641 52.46871094 -0.51613281 51.31242187 -0.55664062 50.12109375 C-0.74144151 45.0888235 -0.94831925 40.12070697 -1.59375 35.125 C-2.34878902 28.20627639 -1.59596948 21.28790954 -1.0625 14.375 C-0.96080808 12.9753169 -0.85989106 11.57557728 -0.75976562 10.17578125 C-0.51409752 6.78322172 -0.26065875 3.39143508 0 0 Z " fill="#8157A8" transform="translate(363,204)"/>
<path d="M0 0 C2 2 2 2 2.23046875 4.7578125 C2.01598028 21.56590873 2.01598028 21.56590873 -1 28 C-1.66 28 -2.32 28 -3 28 C-3.04125 28.7425 -3.0825 29.485 -3.125 30.25 C-4.34857383 34.09551776 -6.59346582 35.04305483 -10 37 C-10 33 -10 33 -8 31 C-7.01 31 -6.02 31 -5 31 C-5.0928125 29.63875 -5.0928125 29.63875 -5.1875 28.25 C-4.98313144 24.70761168 -4.47346304 23.47346304 -2 21 C-1.34 21 -0.68 21 0 21 C0 14.07 0 7.14 0 0 Z " fill="#BFB2EB" transform="translate(519,453)"/>
<path d="M0 0 C0.66 0 1.32 0 2 0 C1.61018475 5.84722881 1.37755341 7.93681308 -3 12 C-4.21075887 13.50238252 -5.39854138 15.02357485 -6.5625 16.5625 C-10.65342145 21.9654319 -10.65342145 21.9654319 -13 24 C-13.66 24 -14.32 24 -15 24 C-15.33 24.99 -15.66 25.98 -16 27 C-16.66 27 -17.32 27 -18 27 C-18.33 28.32 -18.66 29.64 -19 31 C-19.99 31 -20.98 31 -22 31 C-22 30.01 -22 29.02 -22 28 C-21.34 28 -20.68 28 -20 28 C-19.79375 27.443125 -19.5875 26.88625 -19.375 26.3125 C-17.82908349 23.71254951 -15.92602836 22.15368207 -13.58203125 20.27734375 C-7.97421271 15.74954952 -4.28722705 10.86168116 -2 4 C-1.34 4 -0.68 4 0 4 C0 2.68 0 1.36 0 0 Z " fill="#C0A7EE" transform="translate(456,363)"/>
<path d="M0 0 C2.328125 0.19140625 2.328125 0.19140625 5 1 C6.546875 3.21484375 6.546875 3.21484375 7.75 5.9375 C8.15734375 6.83339844 8.5646875 7.72929687 8.984375 8.65234375 C9.31953125 9.42707031 9.6546875 10.20179688 10 11 C10.33 11.66 10.66 12.32 11 13 C4.73 13 -1.54 13 -8 13 C-7.67 12.34 -7.34 11.68 -7 11 C-4.27734375 10.3671875 -4.27734375 10.3671875 -0.9375 9.875 C0.16722656 9.70742188 1.27195312 9.53984375 2.41015625 9.3671875 C3.69212891 9.18542969 3.69212891 9.18542969 5 9 C4.67 7.68 4.34 6.36 4 5 C3.34 5 2.68 5 2 5 C1.34 3.35 0.68 1.7 0 0 Z " fill="#3A2C3B" transform="translate(315,277)"/>
<path d="M0 0 C2.64 0.66 5.28 1.32 8 2 C8 2.66 8 3.32 8 4 C15.95735532 5.88849677 23.84515697 6.55348122 32 7 C32 6.34 32 5.68 32 5 C35.62326739 3.7922442 36.64146369 4.45688872 40 6 C36.75315328 8.16456448 35.85328719 8.24821443 32.10546875 8.23046875 C30.67170898 8.22756836 30.67170898 8.22756836 29.20898438 8.22460938 C27.71334961 8.20624023 27.71334961 8.20624023 26.1875 8.1875 C24.70926758 8.1865332 24.70926758 8.1865332 23.20117188 8.18554688 C18.36318716 8.15630452 13.75413872 8.00894285 9 7 C9 6.34 9 5.68 9 5 C8.071875 4.87625 7.14375 4.7525 6.1875 4.625 C3 4 3 4 0 2 C0 1.34 0 0.68 0 0 Z " fill="#A795ED" transform="translate(445,500)"/>
<path d="M0 0 C1.37478516 0.01740234 1.37478516 0.01740234 2.77734375 0.03515625 C3.69644531 0.04417969 4.61554688 0.05320312 5.5625 0.0625 C6.27277344 0.07410156 6.98304688 0.08570313 7.71484375 0.09765625 C7.71484375 0.42765625 7.71484375 0.75765625 7.71484375 1.09765625 C-0.43849429 3.4926993 -8.59825645 5.73744071 -16.86523438 7.70214844 C-20.4775029 8.57679417 -23.87423266 9.61806176 -27.28515625 11.09765625 C-26.28515625 8.09765625 -26.28515625 8.09765625 -24.203125 7.03515625 C-18.06862936 4.92889165 -11.94394807 3.16568162 -5.62109375 1.7109375 C-3.02945663 1.03052441 -2.66237635 0.11377677 0 0 Z " fill="#806DB8" transform="translate(256.28515625,360.90234375)"/>
<path d="M0 0 C0.66 0 1.32 0 2 0 C5.25494123 3.51858133 7.55946315 7.15409462 8 12 C5.36 12 2.72 12 0 12 C0 8.04 0 4.08 0 0 Z " fill="#422644" transform="translate(366,173)"/>
<path d="M0 0 C-0.88042969 0.64066406 -1.76085937 1.28132813 -2.66796875 1.94140625 C-11.42761013 8.40727903 -11.42761013 8.40727903 -18 17 C-19 14 -19 14 -17.3125 10.4375 C-15.60194664 7.61240491 -14.2441189 6.04275251 -11 5 C-11 4.34 -11 3.68 -11 3 C-3.88372093 -1.94186047 -3.88372093 -1.94186047 0 0 Z " fill="#836499" transform="translate(454,423)"/>
<path d="M0 0 C0.96099609 0.00451172 1.92199219 0.00902344 2.91210938 0.01367188 C5.25397422 0.02532294 7.59570181 0.04167975 9.9375 0.0625 C6.59347546 3.0613844 6.59347546 3.0613844 3.640625 3.06640625 C2.83109375 2.92074219 2.0215625 2.77507812 1.1875 2.625 C-2.34606391 2.1306133 -4.94337906 2.06622295 -8.375 3.0625 C-12.06067427 4.06200489 -13.48881702 3.93177424 -17.0625 3.0625 C-19.78752965 3.43972015 -19.78752965 3.43972015 -22.0625 4.0625 C-22.0625 3.4025 -22.0625 2.7425 -22.0625 2.0625 C-15.78242773 -1.07753614 -6.87387134 -0.06218534 0 0 Z " fill="#8A63C7" transform="translate(419.0625,354.9375)"/>
<path d="M0 0 C0.66 0.33 1.32 0.66 2 1 C-1.625 5.875 -1.625 5.875 -5 7 C-5.33 7.66 -5.66 8.32 -6 9 C-8.31074405 9.74118205 -10.64811553 10.40206327 -13 11 C-13.804375 11.20625 -14.60875 11.4125 -15.4375 11.625 C-15.953125 11.74875 -16.46875 11.8725 -17 12 C-17 12.66 -17 13.32 -17 14 C-18.32 14.33 -19.64 14.66 -21 15 C-17.89079275 10.91361333 -16.00543035 8.58066221 -11 7 C-10.01 6.34 -9.02 5.68 -8 5 C-7.01 5 -6.02 5 -5 5 C-4.731875 4.360625 -4.46375 3.72125 -4.1875 3.0625 C-3 1 -3 1 0 0 Z " fill="#CBB6F0" transform="translate(426,399)"/>
<path d="M0 0 C4.90847132 4.75013353 4.90847132 4.75013353 5.14526367 7.98364258 C5.1698416 10.59339563 5.18566076 13.20262206 5.1875 15.8125 C5.19974609 16.71548828 5.21199219 17.61847656 5.22460938 18.54882812 C5.23470822 23.13033739 5.20121607 26.84988116 3 31 C2.02186701 28.06560103 1.90742414 26.29875413 1.97265625 23.25390625 C1.98490234 22.33416016 1.99714844 21.41441406 2.00976562 20.46679688 C2.04485233 18.53442893 2.08389922 16.60212873 2.12695312 14.66992188 C2.13791016 13.74888672 2.14886719 12.82785156 2.16015625 11.87890625 C2.17699463 11.0391626 2.19383301 10.19941895 2.21118164 9.33422852 C1.97956927 6.77417543 1.18456862 5.25257919 0 3 C0 2.01 0 1.02 0 0 Z " fill="#AE8FD0" transform="translate(456,332)"/>
<path d="M0 0 C-13.80990235 8.98604156 -13.80990235 8.98604156 -22 11 C-22.66 10.67 -23.32 10.34 -24 10 C-20.66666667 8 -17.33333333 6 -14 4 C-13.14148438 3.46503906 -12.28296875 2.93007813 -11.3984375 2.37890625 C-7.94580838 0.39392567 -3.77478764 -1.88739382 0 0 Z " fill="#725CAE" transform="translate(193,388)"/>
<path d="M0 0 C0 0.66 0 1.32 0 2 C-6.625 4.875 -6.625 4.875 -10 6 C-10.33 6.99 -10.66 7.98 -11 9 C-12.670625 9.12375 -12.670625 9.12375 -14.375 9.25 C-15.57125 9.4975 -16.7675 9.745 -18 10 C-18.33 10.66 -18.66 11.32 -19 12 C-19.33 12.66 -19.66 13.32 -20 14 C-23.625 14.75 -23.625 14.75 -27 15 C-26.01 14.67 -25.02 14.34 -24 14 C-23.67 13.01 -23.34 12.02 -23 11 C-18.50953102 8.12609985 -13.90591338 6.0895557 -9 4 C-7.3170608 3.02763513 -5.64556566 2.03435556 -4 1 C-2 0 -2 0 0 0 Z " fill="#6B50A1" transform="translate(169,399)"/>
<path d="M0 0 C1.5778125 0.01353516 1.5778125 0.01353516 3.1875 0.02734375 C5.75024878 0.05064147 8.31249512 0.08334888 10.875 0.125 C10.875 0.455 10.875 0.785 10.875 1.125 C-0.19696858 2.65972832 -10.94838136 3.395766 -22.125 3.125 C-22.125 2.795 -22.125 2.465 -22.125 2.125 C-14.6693133 0.29156665 -7.65775043 -0.12665491 0 0 Z " fill="#523464" transform="translate(392.125,350.875)"/>
<path d="M0 0 C-4.13963926 4.13963926 -9.92194332 6.50425621 -15.1484375 9.046875 C-17.19826314 10.06023506 -17.19826314 10.06023506 -19.75 11.8125 C-22.44825402 13.23657851 -23.19214076 12.867133 -26 12 C-25.48050781 11.74605469 -24.96101562 11.49210937 -24.42578125 11.23046875 C-21.24949435 9.66287429 -18.1531247 8.09320634 -15.125 6.25 C-13 5 -13 5 -11 5 C-10.62875 4.0409375 -10.62875 4.0409375 -10.25 3.0625 C-9 1 -9 1 -7.1875 0.25 C-4.77172869 -0.02608815 -2.42947614 -0.06748545 0 0 Z " fill="#8F6DD3" transform="translate(167,399)"/>
<path d="M0 0 C0.33 0.99 0.66 1.98 1 3 C-1.09814671 5.15202209 -3.20302055 7.29663616 -5.3125 9.4375 C-6.20485352 10.35499023 -6.20485352 10.35499023 -7.11523438 11.29101562 C-7.69208984 11.87431641 -8.26894531 12.45761719 -8.86328125 13.05859375 C-9.65665894 13.86768188 -9.65665894 13.86768188 -10.46606445 14.69311523 C-12 16 -12 16 -15 17 C-13.73882275 13.11137013 -12.54735833 11.10624401 -9 9 C-8.34 9 -7.68 9 -7 9 C-6.67 7.68 -6.34 6.36 -6 5 C-5.34 5 -4.68 5 -4 5 C-4 4.34 -4 3.68 -4 3 C-3.34 3 -2.68 3 -2 3 C-2 2.34 -2 1.68 -2 1 C-1.34 0.67 -0.68 0.34 0 0 Z " fill="#D7D3D7" transform="translate(226,459)"/>
<path d="M0 0 C0.33 0 0.66 0 1 0 C1.01458252 0.86802246 1.02916504 1.73604492 1.04418945 2.63037109 C1.10520111 5.84738879 1.17934391 9.06375663 1.26245117 12.28027344 C1.29572873 13.67306089 1.32375197 15.06598411 1.34643555 16.45898438 C1.37992689 18.45991378 1.43381305 20.46046921 1.48828125 22.4609375 C1.51446533 23.66540527 1.54064941 24.86987305 1.56762695 26.11083984 C1.71031006 27.0642627 1.85299316 28.01768555 2 29 C2.99 29.66 3.98 30.32 5 31 C4.01 32.98 3.02 34.96 2 37 C1.34 37 0.68 37 0 37 C0 24.79 0 12.58 0 0 Z " fill="#4A3668" transform="translate(271,289)"/>
<path d="M0 0 C-18.72048327 10.08856015 -18.72048327 10.08856015 -26.2734375 8.53125 C-26.84320313 8.3559375 -27.41296875 8.180625 -28 8 C-23.85394251 6.58977636 -19.73179091 5.19601542 -15.5 4.0625 C-11.79282531 2.93710768 -8.48112636 1.42160622 -5.015625 -0.29296875 C-3 -1 -3 -1 0 0 Z " fill="#A98CE3" transform="translate(379,427)"/>
<path d="M0 0 C0.66 0 1.32 0 2 0 C1.67 1.32 1.34 2.64 1 4 C0.34 4 -0.32 4 -1 4 C-1 5.32 -1 6.64 -1 8 C0.98 8 2.96 8 5 8 C3.8125 9.5 3.8125 9.5 2 11 C0.33333333 11 -1.33333333 11 -3 11 C-3.99 12.485 -3.99 12.485 -5 14 C-5.99 13.67 -6.98 13.34 -8 13 C-7.05065487 11.32819726 -6.09026687 9.66266064 -5.125 8 C-4.59132813 7.071875 -4.05765625 6.14375 -3.5078125 5.1875 C-3.01023437 4.465625 -2.51265625 3.74375 -2 3 C-1.34 3 -0.68 3 0 3 C0 2.01 0 1.02 0 0 Z " fill="#6A557D" transform="translate(356,348)"/>
<path d="M0 0 C1.32 0.33 2.64 0.66 4 1 C3.21625 1.639375 2.4325 2.27875 1.625 2.9375 C-1.83045276 6.32443103 -2.32290199 10.36137332 -3 15 C-3.99 15 -4.98 15 -6 15 C-5.61471495 8.83543922 -3.52913975 5.01372252 0 0 Z " fill="#9378DB" transform="translate(193,301)"/>
<path d="M0 0 C2.33430399 4.66860799 2.13115646 9.36528178 2.09765625 14.484375 C2.09553383 15.70776581 2.09553383 15.70776581 2.09336853 16.95587158 C2.08778303 19.55395212 2.07523321 22.15194563 2.0625 24.75 C2.05748312 26.51432167 2.05292054 28.27864469 2.04882812 30.04296875 C2.03781835 34.36201256 2.02056369 38.68099154 2 43 C1.67 43 1.34 43 1 43 C0.97494385 41.97527588 0.9498877 40.95055176 0.92407227 39.89477539 C0.83015516 36.10590324 0.72989683 32.31722119 0.62768555 28.52856445 C0.58427703 26.88635697 0.54260642 25.24410261 0.50268555 23.60180664 C0.4451256 21.24611255 0.38139108 18.89065572 0.31640625 16.53515625 C0.29133751 15.42733543 0.29133751 15.42733543 0.26576233 14.2971344 C0.46451987 10.85699373 0.46451987 10.85699373 -1 8 C-1.125 4.5 -1.125 4.5 -1 1 C-0.67 0.67 -0.34 0.34 0 0 Z " fill="#674B9B" transform="translate(269,167)"/>
<path d="M0 0 C0.33 0 0.66 0 1 0 C0.99476318 0.61520508 0.98952637 1.23041016 0.98413086 1.86425781 C0.96330629 4.65949476 0.95032241 7.45471536 0.9375 10.25 C0.92912109 11.21808594 0.92074219 12.18617188 0.91210938 13.18359375 C0.90888672 14.11816406 0.90566406 15.05273438 0.90234375 16.015625 C0.89710693 16.87446289 0.89187012 17.73330078 0.88647461 18.61816406 C0.99460014 20.88670744 1.36417577 22.82631715 2 25 C1.34 25 0.68 25 0 25 C-0.33 25.66 -0.66 26.32 -1 27 C-1.02886537 22.68751391 -1.04675255 18.37505238 -1.0625 14.0625 C-1.07087891 12.83080078 -1.07925781 11.59910156 -1.08789062 10.33007812 C-1.09111328 9.16025391 -1.09433594 7.99042969 -1.09765625 6.78515625 C-1.10289307 5.70113525 -1.10812988 4.61711426 -1.11352539 3.50024414 C-1 1 -1 1 0 0 Z " fill="#2E1D35" transform="translate(274,294)"/>
<path d="M0 0 C0.33 0.66 0.66 1.32 1 2 C1.99 2 2.98 2 4 2 C4.33 2.99 4.66 3.98 5 5 C3.10507994 5.33848652 1.20901534 5.67056911 -0.6875 6 C-1.74324219 6.185625 -2.79898437 6.37125 -3.88671875 6.5625 C-6.64904062 6.95068074 -9.21742043 7.08259976 -12 7 C-12 6.34 -12 5.68 -12 5 C-11.21753906 4.80664062 -10.43507813 4.61328125 -9.62890625 4.4140625 C-8.61699219 4.15367187 -7.60507812 3.89328125 -6.5625 3.625 C-5.55316406 3.36976563 -4.54382813 3.11453125 -3.50390625 2.8515625 C-0.84429676 2.27426046 -0.84429676 2.27426046 0 0 Z " fill="#8274BA" transform="translate(276,353)"/>
<path d="M0 0 C0.99 0.33 1.98 0.66 3 1 C-1.29420063 4.77889655 -6.26165785 5.55804861 -11.6875 6.9375 C-14.75963268 7.92290105 -16.60459086 8.89203996 -19 11 C-19 8 -19 8 -17.5625 6.4375 C-14.49709376 4.71788187 -11.67782305 4.20259917 -8.25 3.54296875 C-5.73369319 3.0249897 -5.73369319 3.0249897 -2.625 1.3125 C-1.325625 0.6628125 -1.325625 0.6628125 0 0 Z " fill="#3A264E" transform="translate(233,372)"/>
<path d="M0 0 C1.07143037 3.45703706 1.06890989 6.58265148 1 10.1875 C0.95147064 15.5621269 1.2783415 20.67776855 2 26 C0 25 0 25 -1.109375 22.80078125 C-3.47280058 15.36842976 -2.25053002 7.31422258 0 0 Z " fill="#B5ADD8" transform="translate(274,322)"/>
<path d="M0 0 C1.32 0.33 2.64 0.66 4 1 C4.33 2.32 4.66 3.64 5 5 C2.36 5.66 -0.28 6.32 -3 7 C-3 7.99 -3 8.98 -3 10 C-3.66 10 -4.32 10 -5 10 C-5.33 10.99 -5.66 11.98 -6 13 C-6.33 12.34 -6.66 11.68 -7 11 C-5.56640625 8.3984375 -5.56640625 8.3984375 -3.5625 5.375 C-2.90378906 4.37210937 -2.24507813 3.36921875 -1.56640625 2.3359375 C-1.04949219 1.56507813 -0.53257812 0.79421875 0 0 Z " fill="#856CA5" transform="translate(130,415)"/>
<path d="M0 0 C-0.51949219 0.25394531 -1.03898437 0.50789063 -1.57421875 0.76953125 C-4.70876033 2.31652312 -7.76831272 3.85782826 -10.75 5.6875 C-13.96573154 7.5633434 -16.29583222 8 -20 8 C-18.6875 6.5 -18.6875 6.5 -17 5 C-16.01 5 -15.02 5 -14 5 C-14 4.34 -14 3.68 -14 3 C-12.42274653 2.29866401 -10.83788667 1.614417 -9.25 0.9375 C-7.92742187 0.36322266 -7.92742187 0.36322266 -6.578125 -0.22265625 C-3.84743691 -1.04600008 -2.63098653 -0.9773992 0 0 Z " fill="#39274E" transform="translate(213,383)"/>
<path d="M0 0 C6.56109325 -0.37138264 6.56109325 -0.37138264 8.625 1.375 C9.07875 1.91125 9.5325 2.4475 10 3 C12.59915538 4.19027984 12.59915538 4.19027984 15 5 C15 5.99 15 6.98 15 8 C16.65 8.66 18.3 9.32 20 10 C20 10.66 20 11.32 20 12 C18.66666667 11.33333333 17.33333333 10.66666667 16 10 C15.278125 9.67 14.55625 9.34 13.8125 9 C12 8 12 8 11 6 C9.17712703 5.06154746 7.31635447 4.19564908 5.4375 3.375 C4.42558594 2.92898438 3.41367187 2.48296875 2.37109375 2.0234375 C1.58863281 1.68570312 0.80617188 1.34796875 0 1 C0 0.67 0 0.34 0 0 Z " fill="#AD8CD1" transform="translate(330,292)"/>
<path d="M0 0 C0.66 0.33 1.32 0.66 2 1 C1.360625 1.268125 0.72125 1.53625 0.0625 1.8125 C-2.33131686 2.88667752 -2.33131686 2.88667752 -3 6 C-5.43359375 7.31640625 -5.43359375 7.31640625 -8.4375 8.5625 C-12.57472599 10.24357549 -12.57472599 10.24357549 -16 13 C-18.125 12.625 -18.125 12.625 -20 12 C-19.360625 11.71125 -18.72125 11.4225 -18.0625 11.125 C-15.84793921 10.17176549 -15.84793921 10.17176549 -15 8 C-13.9275 7.731875 -12.855 7.46375 -11.75 7.1875 C-7.54230053 5.85506183 -5.94520149 4.19063495 -3 1 C-2.01 0.67 -1.02 0.34 0 0 Z " fill="#46326B" transform="translate(166,401)"/>
<path d="M0 0 C0.33 0.66 0.66 1.32 1 2 C0.01 2.495 0.01 2.495 -1 3 C-1.350625 3.78375 -1.70125 4.5675 -2.0625 5.375 C-4.84581194 9.14593876 -8.4632118 10.15634679 -13 11 C-13.66 10.67 -14.32 10.34 -15 10 C-14.00419922 9.41992188 -14.00419922 9.41992188 -12.98828125 8.828125 C-8.41482889 6.13078959 -4.02747372 3.49047722 0 0 Z " fill="#9586A3" transform="translate(347,362)"/>
<path d="M0 0 C0.66 0.66 1.32 1.32 2 2 C1.01 3.485 1.01 3.485 0 5 C-0.66 5 -1.32 5 -2 5 C-2.33 5.99 -2.66 6.98 -3 8 C-3.66 8 -4.32 8 -5 8 C-5.33 9.32 -5.66 10.64 -6 12 C-6.99 12 -7.98 12 -9 12 C-9 11.01 -9 10.02 -9 9 C-8.34 9 -7.68 9 -7 9 C-6.6596875 8.1646875 -6.6596875 8.1646875 -6.3125 7.3125 C-4.64103234 4.36753316 -2.44723648 2.31843456 0 0 Z " fill="#AA8CE9" transform="translate(443,382)"/>
<path d="M0 0 C0 0.99 0 1.98 0 3 C-1.7015625 3.680625 -1.7015625 3.680625 -3.4375 4.375 C-7.04721692 5.57095806 -7.04721692 5.57095806 -8 8 C-10.31 8 -12.62 8 -15 8 C-15 7.34 -15 6.68 -15 6 C-13.58521865 5.35004703 -12.16808513 4.70521278 -10.75 4.0625 C-9.96109375 3.70285156 -9.1721875 3.34320313 -8.359375 2.97265625 C-6.23785024 2.09805416 -4.22560828 1.52786863 -2 1 C-1.34 0.67 -0.68 0.34 0 0 Z " fill="#875CB8" transform="translate(458,345)"/>
<path d="M0 0 C0.33 0.66 0.66 1.32 1 2 C0 3.66666667 -1 5.33333333 -2 7 C-2.28875 8.19625 -2.5775 9.3925 -2.875 10.625 C-4 14 -4 14 -6.625 15.9375 C-7.40875 16.288125 -8.1925 16.63875 -9 17 C-7.57997238 13.24069983 -5.87350167 9.77000304 -3.9375 6.25 C-3.14666016 4.80367188 -3.14666016 4.80367188 -2.33984375 3.328125 C-1 1 -1 1 0 0 Z " fill="#BDADE7" transform="translate(190,304)"/>
<path d="M0 0 C1.26582219 3.86723631 1.1118765 7.73151262 1.0625 11.75 C1.05798828 12.44738281 1.05347656 13.14476562 1.04882812 13.86328125 C1.0371002 15.57555803 1.01916653 17.28779033 1 19 C0.34 19.33 -0.32 19.66 -1 20 C-3.51899591 14.96200818 -2.40187844 7.50704417 -1 2.25 C-0.67 1.5075 -0.34 0.765 0 0 Z " fill="#342C37" transform="translate(114,448)"/>
<path d="M0 0 C-0.66 1.32 -1.32 2.64 -2 4 C-6.46839215 4.21278058 -9.82262526 3.59138085 -14 2 C-14 1.67 -14 1.34 -14 1 C-9.23692563 0.04738513 -4.8333472 -0.08333357 0 0 Z " fill="#714D9A" transform="translate(389,355)"/>
<path d="M0 0 C0.99 0 1.98 0 3 0 C3.4375 2.6875 3.4375 2.6875 3 6 C0.88875077 8.04775301 -1.45859507 9.53480226 -4 11 C-2.25 3.375 -2.25 3.375 0 0 Z " fill="#947BD8" transform="translate(181,321)"/>
<path d="M0 0 C1.3609894 4.08296821 0.59731451 6.04143795 -1 10 C-4.125 12.4375 -4.125 12.4375 -7 14 C-7 10 -7 10 -5 8 C-4.01 8 -3.02 8 -2 8 C-2.04125 7.05125 -2.0825 6.1025 -2.125 5.125 C-2 2 -2 2 0 0 Z " fill="#AF9DED" transform="translate(516,476)"/>
<path d="M0 0 C0 0.66 0 1.32 0 2 C-1.89192475 2.98669759 -3.78871978 3.9640602 -5.6875 4.9375 C-6.74324219 5.48277344 -7.79898438 6.02804687 -8.88671875 6.58984375 C-11.66234047 7.8470576 -14.00272126 8.56069569 -17 9 C-12.61904215 4.09332721 -6.79691003 0 0 0 Z " fill="#4A3770" transform="translate(199,386)"/>
<path d="M0 0 C2.64 0.66 5.28 1.32 8 2 C8 2.66 8 3.32 8 4 C8.556875 4.12375 9.11375 4.2475 9.6875 4.375 C12.22114364 5.05976855 14.57921032 5.99133763 17 7 C14.13822943 8.43088528 12.06624227 7.59991697 9 7 C9 6.34 9 5.68 9 5 C8.071875 4.87625 7.14375 4.7525 6.1875 4.625 C3 4 3 4 0 2 C0 1.34 0 0.68 0 0 Z " fill="#C9BEF1" transform="translate(445,500)"/>
<path d="M0 0 C-0.51949219 0.24234375 -1.03898437 0.4846875 -1.57421875 0.734375 C-4.91802237 2.34137859 -7.79428157 3.83255477 -10.6875 6.1875 C-13.19353751 8.15169156 -14.87254323 8.64257637 -18 9 C-16.6875 7.5 -16.6875 7.5 -15 6 C-14.01 6 -13.02 6 -12 6 C-11.92652344 5.37738281 -11.85304687 4.75476563 -11.77734375 4.11328125 C-11 2 -11 2 -9.00390625 0.91796875 C-8.19824219 0.67691406 -7.39257812 0.43585938 -6.5625 0.1875 C-5.75941406 -0.06644531 -4.95632812 -0.32039063 -4.12890625 -0.58203125 C-2 -1 -2 -1 0 0 Z " fill="#37264D" transform="translate(175,401)"/>
<path d="M0 0 C0.99 0.33 1.98 0.66 3 1 C2.28199219 1.42925781 1.56398437 1.85851562 0.82421875 2.30078125 C-0.99127606 3.3930914 -2.80165566 4.49397373 -4.60546875 5.60546875 C-5.45753906 6.12753906 -6.30960938 6.64960938 -7.1875 7.1875 C-8.47720703 7.98220703 -8.47720703 7.98220703 -9.79296875 8.79296875 C-12 10 -12 10 -14 10 C-14 9.34 -14 8.68 -14 8 C-12.33875988 7.05071993 -10.67689373 6.10251694 -9.01171875 5.16015625 C-7.68934342 4.39754368 -6.37873578 3.61408231 -5.08203125 2.80859375 C-3.43111859 1.79833377 -1.71774352 0.89190529 0 0 Z " fill="#8C6FD5" transform="translate(181,389)"/>
<path d="M0 0 C0 0.66 0 1.32 0 2 C-2.22771342 2.50643553 -4.45724076 3.0048962 -6.6875 3.5 C-8.54955078 3.91765625 -8.54955078 3.91765625 -10.44921875 4.34375 C-13.42398218 4.89354126 -15.99368602 5.13795705 -19 5 C-18 3.5625 -18 3.5625 -16 2 C-13.98231402 1.67973238 -11.96057938 1.36587 -9.92578125 1.18359375 C-7.92799574 1.0415136 -7.92799574 1.0415136 -5.75 0.4375 C-4 0 -4 0 0 0 Z " fill="#926FC1" transform="translate(341,438)"/>
<path d="M0 0 C0 0.33 0 0.66 0 1 C-2.24976352 1.64665663 -4.49981967 2.29229523 -6.75 2.9375 C-8.00296875 3.29714844 -9.2559375 3.65679687 -10.546875 4.02734375 C-13.02561719 4.72554149 -15.49660162 5.39943726 -18 6 C-18 5.34 -18 4.68 -18 4 C-17.01 4 -16.02 4 -15 4 C-15 3.34 -15 2.68 -15 2 C-10.13948404 -0.59227518 -5.34728867 -0.18689553 0 0 Z " fill="#685896" transform="translate(264,361)"/>
<path d="M0 0 C1.32 0 2.64 0 4 0 C3.67 3.96 3.34 7.92 3 12 C0.13700494 9.13700494 0.00578775 7.34147716 -0.0625 3.3125 C-0.041875 2.219375 -0.02125 1.12625 0 0 Z " fill="#8E79C7" transform="translate(269,326)"/>
<path d="M0 0 C0.66 0.66 1.32 1.32 2 2 C1.67 2.825 1.34 3.65 1 4.5 C-0.59520563 10.08321971 -0.4153791 15.33848359 1 21 C-0.48046875 19.93359375 -0.48046875 19.93359375 -2 18 C-2.36328125 14.78515625 -2.36328125 14.78515625 -2.3125 11.0625 C-2.30863281 9.83660156 -2.30476563 8.61070312 -2.30078125 7.34765625 C-2.02532154 4.28182542 -1.61467714 2.56675768 0 0 Z " fill="#8469A0" transform="translate(429,451)"/>
<path d="M0 0 C0.66 0.33 1.32 0.66 2 1 C-0.35649699 3.68872443 -2.63578765 4.9193851 -5.9375 6.25 C-7.21947266 6.78367187 -7.21947266 6.78367187 -8.52734375 7.328125 C-11.17145366 8.04658772 -12.45868571 7.91982605 -15 7 C-13.06374902 6.01836578 -11.12595461 5.03977546 -9.1875 4.0625 C-8.10855469 3.51722656 -7.02960938 2.97195313 -5.91796875 2.41015625 C-3 1 -3 1 0 0 Z " fill="#4F3C76" transform="translate(214,378)"/>
<path d="M0 0 C3.77068832 -0.086985 7.54111932 -0.14038579 11.3125 -0.1875 C12.38435547 -0.21263672 13.45621094 -0.23777344 14.56054688 -0.26367188 C15.58857422 -0.27333984 16.61660156 -0.28300781 17.67578125 -0.29296875 C19.0975769 -0.31653442 19.0975769 -0.31653442 20.5480957 -0.34057617 C23.39771408 0.05524357 24.24976105 0.77824719 26 3 C25.22398437 2.84660156 24.44796875 2.69320313 23.6484375 2.53515625 C18.97800532 1.85009286 14.33744915 1.64253523 9.625 1.4375 C8.69816406 1.39431641 7.77132813 1.35113281 6.81640625 1.30664062 C4.54439706 1.20123814 2.27229075 1.09911394 0 1 C0 0.67 0 0.34 0 0 Z " fill="#D2C7E4" transform="translate(465,417)"/>
<path d="M0 0 C1.65 0 3.3 0 5 0 C2.87748883 2.30104014 0.84451444 3.81894459 -1.9375 5.25 C-2.60652344 5.60578125 -3.27554688 5.9615625 -3.96484375 6.328125 C-6.38269269 7.12634 -7.63011757 6.82707306 -10 6 C-8.71086513 5.32845067 -7.41859796 4.66291141 -6.125 4 C-5.40570313 3.62875 -4.68640625 3.2575 -3.9453125 2.875 C-2 2 -2 2 0 2 C0 1.34 0 0.68 0 0 Z " fill="#755EAE" transform="translate(203,380)"/>
<path d="M0 0 C0.66 0.33 1.32 0.66 2 1 C0.375 8.75 0.375 8.75 -3 11 C-4.19232613 13.05003955 -4.19232613 13.05003955 -5 15 C-6 13 -6 13 -5.22265625 10.6171875 C-4.83980469 9.71226562 -4.45695313 8.80734375 -4.0625 7.875 C-3.68222656 6.96492188 -3.30195313 6.05484375 -2.91015625 5.1171875 C-2.60980469 4.41851562 -2.30945313 3.71984375 -2 3 C-1.34 3 -0.68 3 0 3 C0 2.01 0 1.02 0 0 Z " fill="#C2B5EE" transform="translate(160,356)"/>
<path d="M0 0 C2.475 0.495 2.475 0.495 5 1 C5.99 3.97 6.98 6.94 8 10 C7.01 9.67 6.02 9.34 5 9 C4.3125 6.9375 4.3125 6.9375 4 5 C3.34 5 2.68 5 2 5 C1.34 3.35 0.68 1.7 0 0 Z " fill="#472C4D" transform="translate(315,277)"/>
<path d="M0 0 C0.66 0.33 1.32 0.66 2 1 C0.22054913 5.04420651 -2.39529673 8.46078487 -5 12 C-5.33 11.01 -5.66 10.02 -6 9 C-4.22445479 5.51013529 -2.75847687 2.75847687 0 0 Z " fill="#927AA8" transform="translate(441,428)"/>
<path d="M0 0 C0.66 0.33 1.32 0.66 2 1 C-3.91684902 7.86214442 -3.91684902 7.86214442 -8.4375 8.4375 C-9.283125 8.293125 -10.12875 8.14875 -11 8 C-10.67 7.34 -10.34 6.68 -10 6 C-8.35 6 -6.7 6 -5 6 C-4.9175 5.38125 -4.835 4.7625 -4.75 4.125 C-4 2 -4 2 -2.0625 0.6875 C-1.381875 0.460625 -0.70125 0.23375 0 0 Z " fill="#533B7B" transform="translate(140,414)"/>
<path d="M0 0 C2.1875 0.3125 2.1875 0.3125 4 1 C0.18858415 4.81141585 -2.64166906 5.49338543 -7.81640625 5.7265625 C-10.23929727 6.02996567 -11.88855192 6.80303397 -14 8 C-13 6.0625 -13 6.0625 -11 4 C-8.94758376 3.58096502 -6.94769581 3.43377762 -4.859375 3.28515625 C-2.4359094 2.91349031 -1.60837681 1.76921449 0 0 Z " fill="#392755" transform="translate(153,410)"/>
<path d="M0 0 C0.66 0.33 1.32 0.66 2 1 C0.73608512 2.00873016 -0.53640883 3.00671822 -1.8125 4 C-2.87404297 4.8353125 -2.87404297 4.8353125 -3.95703125 5.6875 C-6 7 -6 7 -9 7 C-9 7.66 -9 8.32 -9 9 C-10.32 9.33 -11.64 9.66 -13 10 C-9.89079275 5.91361333 -8.00543035 3.58066221 -3 2 C-2.01 1.34 -1.02 0.68 0 0 Z " fill="#AC8FEA" transform="translate(418,404)"/>
<path d="M0 0 C0.66 0.33 1.32 0.66 2 1 C0.58480285 3.0343459 -0.54982123 3.90410393 -2.98046875 4.421875 C-4.98176954 4.66273952 -6.9909944 4.83532741 -9 5 C-9 5.66 -9 6.32 -9 7 C-9.66 6.67 -10.32 6.34 -11 6 C-9.9375 4.0625 -9.9375 4.0625 -8 2 C-4.375 1.3125 -4.375 1.3125 -1 1 C-0.67 0.67 -0.34 0.34 0 0 Z " fill="#A78EE8" transform="translate(402,414)"/>
<path d="M0 0 C0.66 0 1.32 0 2 0 C2 0.66 2 1.32 2 2 C1.34 2 0.68 2 0 2 C0.309375 3.1446875 0.309375 3.1446875 0.625 4.3125 C1 7 1 7 -1 10 C-1.99 9.67 -2.98 9.34 -4 9 C-2.94124926 5.59687262 -1.99097846 2.98646769 0 0 Z " fill="#967CCB" transform="translate(134,406)"/>
<path d="M0 0 C0.33 0.66 0.66 1.32 1 2 C1.66 2 2.32 2 3 2 C3 2.99 3 3.98 3 5 C3.66 5 4.32 5 5 5 C5 6.32 5 7.64 5 9 C5.66 9 6.32 9 7 9 C7.33 10.65 7.66 12.3 8 14 C4.65756352 12.10595266 4.02002851 11.05908409 2.75 7.3125 C2.5025 6.219375 2.255 5.12625 2 4 C1.34 4 0.68 4 0 4 C0 2.68 0 1.36 0 0 Z " fill="#BBB3BD" transform="translate(364,164)"/>
<path d="M0 0 C-0.99 0 -1.98 0 -3 0 C-3.33 0.99 -3.66 1.98 -4 3 C-6.64 3.33 -9.28 3.66 -12 4 C-12 3.34 -12 2.68 -12 2 C-10.75579353 1.4654744 -9.50429064 0.94791389 -8.25 0.4375 C-7.55390625 0.14746094 -6.8578125 -0.14257812 -6.140625 -0.44140625 C-3.69987216 -1.07831803 -2.3596345 -0.80248831 0 0 Z " fill="#9881D8" transform="translate(233,369)"/>
<path d="M0 0 C0.66 0 1.32 0 2 0 C1.67 1.32 1.34 2.64 1 4 C0.34 4 -0.32 4 -1 4 C-0.896875 4.7425 -0.79375 5.485 -0.6875 6.25 C-1 9 -1 9 -3.5 11.3125 C-4.7375 12.1478125 -4.7375 12.1478125 -6 13 C-4.31326082 8.50202887 -2.18326108 4.27113698 0 0 Z " fill="#AB96D7" transform="translate(264,173)"/>
<path d="M0 0 C0 0.66 0 1.32 0 2 C-1.57533086 2.86883706 -3.16064509 3.71959068 -4.75 4.5625 C-5.63171875 5.03816406 -6.5134375 5.51382812 -7.421875 6.00390625 C-10.20701188 7.07998186 -11.26980214 7.06528748 -14 6 C-12.948125 5.566875 -11.89625 5.13375 -10.8125 4.6875 C-8.45270359 3.68434768 -6.40094175 2.64056505 -4.1875 1.3125 C-2 0 -2 0 0 0 Z " fill="#B7A5EE" transform="translate(501,499)"/>
<path d="M0 0 C-4.84060277 3.06242216 -8.29290936 4.53411505 -14 5 C-12.53698952 2.07397905 -10.58977236 1.90294791 -7.5625 0.8125 C-6.57378906 0.44769531 -5.58507812 0.08289063 -4.56640625 -0.29296875 C-2 -1 -2 -1 0 0 Z " fill="#624D97" transform="translate(183,394)"/>
<path d="M0 0 C1.52124209 3.04248417 0.47139881 5.70020832 0 9 C0.33 9.66 0.66 10.32 1 11 C-0.65 11.33 -2.3 11.66 -4 12 C-4 10.68 -4 9.36 -4 8 C-3.34 8 -2.68 8 -2 8 C-1.855625 6.865625 -1.71125 5.73125 -1.5625 4.5625 C-1 1 -1 1 0 0 Z " fill="#8E78BE" transform="translate(267,169)"/>
<path d="M0 0 C0.309375 0.639375 0.61875 1.27875 0.9375 1.9375 C1.8345163 3.93610821 1.8345163 3.93610821 3 5 C3.14115161 7.67058851 3.04247107 10.32432238 3 13 C2.33333333 11.66666667 1.66666667 10.33333333 1 9 C0.608125 8.360625 0.21625 7.72125 -0.1875 7.0625 C-1.24344992 4.38201174 -0.75786685 2.72832067 0 0 Z " fill="#795BA8" transform="translate(267,171)"/>
<path d="M0 0 C0 0.99 0 1.98 0 3 C-2.97 3 -5.94 3 -9 3 C-9 2.34 -9 1.68 -9 1 C-5.846632 0.29925156 -3.27275026 0 0 0 Z " fill="#55467E" transform="translate(273,359)"/>
<path d="M0 0 C0.98120464 3.05263664 0.98120464 4.94736336 0 8 C-0.66 8 -1.32 8 -2 8 C-2 8.99 -2 9.98 -2 11 C-2.66 10.67 -3.32 10.34 -4 10 C-2.99806563 6.20696275 -2.18975773 3.28463659 0 0 Z " fill="#BFAEEA" transform="translate(177,326)"/>
<path d="M0 0 C1 2 1 2 0.375 4.3125 C-1.26624041 7.52037899 -3.36337053 9.57152549 -6 12 C-4.43358249 7.69235185 -2.31663844 3.93828536 0 0 Z " fill="#C3B3EB" transform="translate(255,188)"/>
<path d="M0 0 C0.99 0.495 0.99 0.495 2 1 C2 1.66 2 2.32 2 3 C2.66 3 3.32 3 4 3 C7 8.75 7 8.75 7 11 C6.34 11 5.68 11 5 11 C2.55954927 7.54269479 1.21934486 4.03321763 0 0 Z " fill="#C5B9E9" transform="translate(511,436)"/>
<path d="M0 0 C0.33 0.66 0.66 1.32 1 2 C0.06421005 4.35981813 -0.93347808 6.69631264 -2 9 C-2.99 8.67 -3.98 8.34 -5 8 C-3.35 5.36 -1.7 2.72 0 0 Z " fill="#9A8DA8" transform="translate(353,353)"/>
<path d="M0 0 C-0.75 6.625 -0.75 6.625 -3 10 C-3 7.03 -3 4.06 -3 1 C-1 0 -1 0 0 0 Z " fill="#5E407D" transform="translate(365,319)"/>
<path d="M0 0 C0.99 0 1.98 0 3 0 C3.66 2.64 4.32 5.28 5 8 C4.34 8 3.68 8 3 8 C3 7.01 3 6.02 3 5 C2.01 4.67 1.02 4.34 0 4 C0 2.68 0 1.36 0 0 Z " fill="#442848" transform="translate(283,224)"/>
<path d="M0 0 C2.1505305 4.30106101 2.09184477 8.22407176 2 13 C1.690625 12.360625 1.38125 11.72125 1.0625 11.0625 C0.1654837 9.06389179 0.1654837 9.06389179 -1 8 C-1.125 4.5 -1.125 4.5 -1 1 C-0.67 0.67 -0.34 0.34 0 0 Z " fill="#624581" transform="translate(269,167)"/>
<path d="M0 0 C0.66 0 1.32 0 2 0 C2.33 2.31 2.66 4.62 3 7 C1.68 7 0.36 7 -1 7 C-0.67 4.69 -0.34 2.38 0 0 Z " fill="#452C57" transform="translate(270,165)"/>
<path d="M0 0 C0 3 0 3 -2.375 5.625 C-5 8 -5 8 -7 9 C-5.64978174 4.58110387 -3.73884332 2.65654657 0 0 Z " fill="#C6BCF1" transform="translate(512,487)"/>
<path d="M0 0 C-5.5 4 -5.5 4 -10 4 C-10 3.34 -10 2.68 -10 2 C-8.71211992 1.46987262 -7.41953322 0.9511671 -6.125 0.4375 C-5.40570313 0.14746094 -4.68640625 -0.14257812 -3.9453125 -0.44140625 C-2 -1 -2 -1 0 0 Z " fill="#957CD5" transform="translate(215,376)"/>
<path d="M0 0 C2.64 0 5.28 0 8 0 C5.37801226 2.15377564 3.35595828 3.40072174 0 4 C0 2.68 0 1.36 0 0 Z " fill="#3D2B53" transform="translate(273,359)"/>
<path d="M0 0 C-2.52956528 3.0916909 -5.22454612 3.90931332 -9 5 C-9 4.34 -9 3.68 -9 3 C-6.04341306 0.15291628 -4.05047276 -0.3375394 0 0 Z " fill="#332534" transform="translate(301,136)"/>
<path d="M0 0 C0.66 0 1.32 0 2 0 C1.34 1.98 0.68 3.96 0 6 C-0.99 6 -1.98 6 -3 6 C-3 5.01 -3 4.02 -3 3 C-2.34 3 -1.68 3 -1 3 C-0.67 2.01 -0.34 1.02 0 0 Z " fill="#B399EE" transform="translate(437,388)"/>
<path d="M0 0 C1.24546405 2.49092811 0.7767578 3.41080733 0 6 C-0.66 6 -1.32 6 -2 6 C-2 7.32 -2 8.64 -2 10 C-2.66 10 -3.32 10 -4 10 C-2.99806563 6.20696275 -2.18975773 3.28463659 0 0 Z " fill="#BBB7BE" transform="translate(279,312)"/>
<path d="M0 0 C1.96301592 3.50538557 2.95902388 7.13351728 4 11 C3.34 10.67 2.68 10.34 2 10 C2 9.01 2 8.02 2 7 C1.34 7 0.68 7 0 7 C0 4.69 0 2.38 0 0 Z " fill="#C5B7D5" transform="translate(427,469)"/>
<path d="M0 0 C0.99 0.33 1.98 0.66 3 1 C-0.3340947 3.19097652 -3.04179141 4.43454163 -7 5 C-2.25 1.125 -2.25 1.125 0 0 Z " fill="#967ADE" transform="translate(181,389)"/>
<path d="M0 0 C-0.99 1.485 -0.99 1.485 -2 3 C-5.125 3.1875 -5.125 3.1875 -8 3 C-8.33 2.34 -8.66 1.68 -9 1 C-5.8035914 -0.06546953 -3.34252724 -0.07427838 0 0 Z " fill="#7A54AC" transform="translate(389,356)"/>
<path d="M0 0 C2.31 0 4.62 0 7 0 C4.77810176 2.22189824 2.91517292 2.92598892 0 4 C0 2.68 0 1.36 0 0 Z " fill="#613F7D" transform="translate(363,356)"/>
</svg>
