<svg xmlns="http://www.w3.org/2000/svg" viewBox="0 0 36 36" fill="none">
  <path fill="#1877F2" d="M36 18c0-9.941-8.059-18-18-18S0 8.059 0 18c0 8.984 6.582 16.427 15.188 17.775V23.414h-4.57V18h4.57v-4.125c0-4.51 2.686-7.004 6.802-7.004 1.97 0 4.032.352 4.032.352v4.434h-2.272c-2.238 0-2.936 1.39-2.936 2.813V18h4.996l-.799 5.414h-4.197v12.361C29.418 34.427 36 26.984 36 18z"/>
  <path fill="#fff" d="M24.969 23.414 25.768 18h-4.996v-3.53c0-1.424.698-2.813 2.936-2.813h2.272V7.223s-2.062-.352-4.032-.352c-4.116 0-6.802 2.494-6.802 7.004V18h-4.57v5.414h4.57v12.361a18.16 18.16 0 0 0 5.625 0V23.414h4.197z"/>
</svg>
